<svg width="44" height="44" viewBox="0 0 44 44" fill="none" xmlns="http://www.w3.org/2000/svg">
<path d="M21.2613 2.90124C21.7264 2.66834 22.274 2.66834 22.7391 2.90124C29.2388 6.15646 35.2899 10.1734 40.7757 14.8348C41.2315 15.2222 41.442 15.8259 41.3258 16.4127C41.2096 16.9995 40.785 17.4774 40.2159 17.6618C34.0246 19.6683 28.2144 22.5229 22.9223 26.0892C22.3649 26.4647 21.6355 26.4647 21.0781 26.0892C19.592 25.0877 18.065 24.1423 16.5002 23.2561V20.6666C16.5002 20.1309 16.7548 19.6486 17.1638 19.3651C19.4989 17.7467 21.9262 16.2524 24.4365 14.8917C25.2376 14.4575 25.535 13.456 25.1008 12.6548C24.6665 11.8537 23.665 11.5563 22.8639 11.9905C20.2473 13.4088 17.7174 14.9663 15.284 16.6529C13.9544 17.5745 13.2002 19.087 13.2002 20.6666V21.5032C10.1798 20.0022 7.03464 18.7151 3.78444 17.6618C3.21539 17.4774 2.79072 16.9995 2.67453 16.4127C2.55835 15.8259 2.76885 15.2222 3.22468 14.8348C8.71043 10.1734 14.7616 6.15646 21.2613 2.90124Z" fill="#C4C4C4"/>
<path d="M13.2002 25.2114C11.4448 24.2834 9.64275 23.4324 7.79853 22.6628C7.42766 24.9191 7.14053 27.2037 6.94042 29.5131C6.88144 30.1939 7.24817 30.8406 7.86268 31.1394C9.02415 31.7042 10.1641 32.3065 11.2809 32.9447C10.8218 33.6572 10.2802 34.3322 9.65618 34.9562C9.01181 35.6006 9.01181 36.6453 9.65618 37.2896C10.3005 37.934 11.3453 37.934 11.9896 37.2896C12.8029 36.4764 13.5062 35.5946 14.0995 34.6629C16.4967 36.219 18.7727 37.9466 20.9099 39.8283C21.5332 40.3772 22.4673 40.3772 23.0906 39.8283C27.0091 36.3782 31.3939 33.4463 36.1378 31.1394C36.7523 30.8406 37.1191 30.1939 37.0601 29.5131C36.86 27.2037 36.5728 24.9191 36.202 22.6627C32.1732 24.3439 28.3458 26.4137 24.7665 28.8258C23.0944 29.9526 20.906 29.9526 19.2339 28.8258C18.3333 28.2188 17.4169 27.6336 16.4856 27.0707C16.3708 29.7189 15.5753 32.3453 14.0995 34.6629C13.1776 34.0644 12.2377 33.4914 11.2809 32.9447C12.5605 30.9589 13.2001 28.681 13.2002 26.4002V25.2114Z" fill="#C4C4C4"/>
</svg>
