<svg width="172" height="60" viewBox="0 0 172 60" fill="none" xmlns="http://www.w3.org/2000/svg">
<path d="M110.015 46.8926H111.068V51.3408C111.566 50.7133 112.481 50.0998 113.631 50.0998C115.46 50.0998 116.97 51.6615 116.97 53.5858C116.97 55.51 115.446 57.0717 113.631 57.0717C112.439 57.0717 111.483 56.4164 111.012 55.775V56.9323H110.015V46.8926ZM111.068 53.5858C111.068 55.0359 112.121 56.0957 113.465 56.0957C114.809 56.0957 115.862 55.0359 115.862 53.5858C115.862 52.1356 114.809 51.0758 113.465 51.0758C112.121 51.0758 111.068 52.1356 111.068 53.5858Z" fill="#ECECEC"/>
<path d="M105.047 57.0717C103.689 57.0717 102.318 56.1096 102.318 54.0738V50.2392H103.371V53.9901C103.371 55.3009 104.077 56.0957 105.255 56.0957C106.516 56.0957 107.222 55.2033 107.222 53.9901V50.2392H108.275V56.9323H107.306V55.8307C106.765 56.6813 105.906 57.0717 105.047 57.0717Z" fill="#ECECEC"/>
<path d="M99.6902 46.8926H100.743V56.9323H99.6902V46.8926Z" fill="#ECECEC"/>
<path d="M92.2574 53.5997C92.2574 51.6475 93.8092 50.0997 95.7489 50.0997C96.8851 50.0997 97.9242 50.6296 98.4784 51.522L97.6333 52.1077C97.2453 51.4523 96.5526 51.0758 95.7489 51.0758C94.3911 51.0758 93.3658 52.1634 93.3658 53.5997C93.3658 55.0359 94.3911 56.0956 95.7767 56.0956C96.6218 56.0956 97.3146 55.7052 97.8134 54.9662L98.6586 55.5518C98.0628 56.5 96.9544 57.0717 95.7489 57.0717C93.7953 57.0717 92.2574 55.5379 92.2574 53.5997Z" fill="#ECECEC"/>
<path d="M87.4104 46.8926H88.4634V56.9323H87.4104V46.8926Z" fill="#ECECEC"/>
<path d="M82.7784 57.0717C80.7971 57.0717 79.3146 55.5797 79.3146 53.5997C79.3146 51.6196 80.8387 50.0997 82.8061 50.0997C84.7043 50.0997 86.1037 51.522 86.1037 53.4602C86.1037 53.6276 86.1037 53.7949 86.076 53.9622H80.3953C80.5477 55.2172 81.5176 56.0956 82.8061 56.0956C83.6513 56.0956 84.3579 55.7052 84.8706 54.9662L85.7157 55.5518C85.1061 56.5 83.9977 57.0717 82.7784 57.0717ZM80.4092 53.0698H85.0091C84.829 51.8427 83.97 51.0758 82.7784 51.0758C81.5592 51.0758 80.6308 51.8846 80.4092 53.0698Z" fill="#ECECEC"/>
<path d="M71.0539 53.5858C71.0539 51.6615 72.5641 50.0998 74.393 50.0998C75.543 50.0998 76.4575 50.7272 76.9563 51.3547V46.8926H78.0093V56.9323H77.0117V55.761C76.5406 56.4164 75.5846 57.0717 74.393 57.0717C72.578 57.0717 71.0539 55.51 71.0539 53.5858ZM72.1623 53.5858C72.1623 55.0359 73.2153 56.0957 74.5593 56.0957C75.9033 56.0957 76.9563 55.0499 76.9563 53.5997C76.9563 52.1495 75.9033 51.0758 74.5593 51.0758C73.2153 51.0758 72.1623 52.1356 72.1623 53.5858Z" fill="#ECECEC"/>
<path d="M62.8203 53.5857C62.8203 51.6615 64.3305 50.0997 66.1594 50.0997C67.351 50.0997 68.2931 50.769 68.7781 51.4105V50.2392H69.7756V56.9323H68.7781V55.7749C68.2931 56.4164 67.351 57.0717 66.1594 57.0717C64.3444 57.0717 62.8203 55.51 62.8203 53.5857ZM63.9287 53.5857C63.9287 55.0359 64.9817 56.0956 66.3257 56.0956C67.6696 56.0956 68.7226 55.0498 68.7226 53.5997C68.7226 52.1495 67.6696 51.0758 66.3257 51.0758C64.9817 51.0758 63.9287 52.1356 63.9287 53.5857Z" fill="#ECECEC"/>
<path d="M56.083 53.5997C56.083 55.0498 57.136 56.0956 58.48 56.0956C59.8239 56.0956 60.8769 55.0359 60.8769 53.5857C60.8769 52.1356 59.8239 51.0758 58.48 51.0758C57.136 51.0758 56.083 52.1495 56.083 53.5997ZM55.03 50.2392H56.0276V51.4244C56.5125 50.769 57.4547 50.0997 58.6462 50.0997C60.4751 50.0997 61.9854 51.6615 61.9854 53.5857C61.9854 55.51 60.4613 57.0717 58.6462 57.0717C57.4685 57.0717 56.5125 56.4164 56.0276 55.7749V60H55.03V50.2392Z" fill="#ECECEC"/>
<path d="M76.9519 35.8576V0.928162H101.247V3.32332H79.8276V16.6963H100.255V19.0416H79.8276V33.4624H101.247V35.8576H76.9519Z" fill="#ECECEC"/>
<path d="M53.423 36.2268C42.9117 36.2268 35.2761 28.6421 35.2761 18.1134C35.2761 7.63457 42.9117 0 53.423 0C61.7528 0 68.1488 4.74042 70.5288 11.7762L68.3967 14.8699C66.9589 6.93598 61.1082 2.44506 53.4726 2.44506C44.5975 2.44506 38.1518 9.03175 38.1518 18.1134C38.1518 27.195 44.5975 33.7817 53.4726 33.7817C61.1082 33.7817 66.9589 29.3407 68.3967 21.4067L70.5288 24.5005C68.1488 31.4864 61.7528 36.2268 53.423 36.2268Z" fill="#ECECEC"/>
<path d="M0 35.8576L15.9158 0.928162H18.2957L34.2115 35.8576H31.0878L25.9313 24.3808H8.32975L3.12366 35.8576H0ZM9.37097 22.0355H24.8901L18.4445 7.76435C17.8495 6.46697 17.6016 5.16959 17.6016 3.72251V3.32332H16.6595V3.72251C16.6595 5.16959 16.4116 6.41707 15.8166 7.76435L9.37097 22.0355Z" fill="#ECECEC"/>
<path d="M107.777 13.6027C111.323 12.5233 110.678 7.99274 110.678 3.58011H107.677V0.928162H113.278V6.18576C113.278 11.1617 112.978 14.3538 107.777 16.1376V13.6027Z" fill="#ECECEC"/>
<path d="M160.398 36.21V25.6314H142.846V23.3361L159.654 1.28064H163.274V23.3361H172V25.6314H163.274V36.21H160.398ZM144.73 23.3361H160.398V3.22671H159.406V3.6758C159.406 5.07298 159.01 6.22066 158.216 7.31844L148.151 20.5417C147.308 21.6395 146.267 22.1385 144.928 22.1385H144.73V23.3361Z" fill="#ECECEC"/>
<path d="M140.009 6.36717C140.505 5.31929 141.249 4.7205 142.24 4.5209V3.37322H119.829V0.928162H144.769V2.62473L129.419 35.9169H126.295L140.009 6.36717Z" fill="#ECECEC"/>
</svg>
