<svg width="81" height="80" viewBox="0 0 81 80" fill="none" xmlns="http://www.w3.org/2000/svg">
<g clip-path="url(#clip0_4370_28400)">
<path d="M26.7861 80.0616C34.2737 78.8911 42.507 75.4236 50.4169 69.9463C49.76 68.3782 49.0414 66.6972 48.2487 64.8837C46.5743 61.0784 44.793 58.5213 42.9046 57.2125C41.7423 56.4322 39.7173 56.042 36.8296 56.042H31.8462L26.7861 80.0616Z" fill="white"/>
<path d="M26.9067 21.4625H53.2688C57.8077 21.4625 61.3391 21.9255 63.863 22.8515C66.3868 23.7774 68.4242 25.4748 69.975 27.9435C71.5292 30.4106 72.307 33.4003 72.3087 36.9128C72.3087 41.9337 70.7957 46.0736 67.7697 49.3324C64.7438 52.5913 60.1669 54.6102 54.0392 55.3889C55.6066 56.7811 57.0792 58.6183 58.4572 60.9005C58.7684 61.4281 59.0993 62.0686 59.4179 62.6453C60.0402 62.0613 60.6748 61.5042 61.2873 60.8956C80.4877 41.8134 86.7603 17.1116 75.2968 5.72017C63.8333 -5.67124 38.9752 0.566792 19.7723 19.6416C0.569374 38.7165 -5.70072 63.4257 5.76276 74.8171C8.17794 77.2171 11.213 78.7901 14.6407 79.6686L26.9067 21.4625Z" fill="white"/>
<path d="M53.2492 46.0099C55.3977 45.2344 57.0786 44.014 58.2919 42.3485C59.5053 40.6831 60.1161 38.9391 60.1243 37.1166C60.1243 34.9718 59.2468 33.362 57.4918 32.2872C56.4118 31.6426 54.0773 31.3203 50.4883 31.3203H37.0344L33.7129 47.1804H40.1904C46.7544 47.1804 51.1073 46.7903 53.2492 46.0099Z" fill="white"/>
</g>
<defs>
<clipPath id="clip0_4370_28400">
<rect width="81" height="80" fill="white"/>
</clipPath>
</defs>
</svg>
