<svg width="170" height="59" viewBox="0 0 170 59" fill="none" xmlns="http://www.w3.org/2000/svg">
<g clip-path="url(#clip0_219_47667)">
<path d="M108.718 46.1055H109.757V50.4716C110.251 49.8556 111.154 49.2534 112.289 49.2534C114.096 49.2534 115.587 50.7863 115.587 52.6751C115.587 54.5639 114.082 56.0968 112.289 56.0968C111.112 56.0968 110.168 55.4535 109.704 54.8239V55.9599H108.718V46.1055ZM109.757 52.6751C109.757 54.0986 110.798 55.1387 112.125 55.1387C113.452 55.1387 114.493 54.0986 114.493 52.6751C114.493 51.2516 113.452 50.2115 112.125 50.2115C110.798 50.2115 109.757 51.2516 109.757 52.6751Z" fill="white"/>
<path d="M103.813 56.0963C102.472 56.0963 101.117 55.1518 101.117 53.1535V49.3896H102.157V53.0714C102.157 54.358 102.855 55.1382 104.018 55.1382C105.263 55.1382 105.961 54.2622 105.961 53.0714V49.3896H107V55.9594H106.042V54.8781C105.51 55.713 104.661 56.0963 103.813 56.0963Z" fill="white"/>
<path d="M98.5225 46.1055H99.5623V55.9599H98.5225V46.1055Z" fill="white"/>
<path d="M91.1826 52.6883C91.1826 50.7722 92.715 49.2529 94.6306 49.2529C95.7525 49.2529 96.7787 49.773 97.326 50.649L96.4914 51.2239C96.1083 50.5806 95.4242 50.211 94.6306 50.211C93.2897 50.211 92.2771 51.2786 92.2771 52.6883C92.2771 54.0981 93.2897 55.1383 94.658 55.1383C95.4925 55.1383 96.1767 54.7551 96.6693 54.0297L97.5039 54.6045C96.9156 55.5351 95.8209 56.0963 94.6306 56.0963C92.7013 56.0963 91.1826 54.5908 91.1826 52.6883Z" fill="white"/>
<path d="M86.3965 46.1055H87.4363V55.9599H86.3965V46.1055Z" fill="white"/>
<path d="M81.822 56.0963C79.8654 56.0963 78.4014 54.6319 78.4014 52.6883C78.4014 50.7448 79.9065 49.2529 81.8495 49.2529C83.7239 49.2529 85.1059 50.649 85.1059 52.5514C85.1059 52.7157 85.1059 52.8799 85.0785 53.0442H79.4686C79.6191 54.276 80.577 55.1383 81.8495 55.1383C82.684 55.1383 83.3818 54.7551 83.8881 54.0297L84.7228 54.6045C84.1207 55.5351 83.0261 56.0963 81.822 56.0963ZM79.4823 52.1682H84.0249C83.8471 50.9638 82.9987 50.211 81.822 50.211C80.618 50.211 79.7012 51.0049 79.4823 52.1682Z" fill="white"/>
<path d="M70.2432 52.6751C70.2432 50.7863 71.7345 49.2534 73.5406 49.2534C74.6762 49.2534 75.5793 49.8693 76.0719 50.4853V46.1055H77.1118V55.9599H76.1266V54.8102C75.6614 55.4535 74.7173 56.0968 73.5406 56.0968C71.7482 56.0968 70.2432 54.5639 70.2432 52.6751ZM71.3377 52.6751C71.3377 54.0986 72.3776 55.1387 73.7048 55.1387C75.032 55.1387 76.0719 54.1123 76.0719 52.6888C76.0719 51.2653 75.032 50.2115 73.7048 50.2115C72.3776 50.2115 71.3377 51.2516 71.3377 52.6751Z" fill="white"/>
<path d="M62.1123 52.6746C62.1123 50.7859 63.6037 49.2529 65.4099 49.2529C66.5865 49.2529 67.517 49.9099 67.9959 50.5395V49.3898H68.981V55.9594H67.9959V54.8235C67.517 55.453 66.5865 56.0963 65.4099 56.0963C63.6174 56.0963 62.1123 54.5634 62.1123 52.6746ZM63.2069 52.6746C63.2069 54.0981 64.2468 55.1383 65.5741 55.1383C66.9012 55.1383 67.9411 54.1118 67.9411 52.6883C67.9411 51.2649 66.9012 50.211 65.5741 50.211C64.2468 50.211 63.2069 51.2513 63.2069 52.6746Z" fill="white"/>
<path d="M55.4588 52.6883C55.4588 54.1118 56.4988 55.1383 57.8259 55.1383C59.1531 55.1383 60.193 54.0981 60.193 52.6746C60.193 51.2513 59.1531 50.211 57.8259 50.211C56.4988 50.211 55.4588 51.2649 55.4588 52.6883ZM54.4189 49.3898H55.4041V50.5532C55.883 49.9099 56.8135 49.2529 57.9901 49.2529C59.7962 49.2529 61.2877 50.7859 61.2877 52.6746C61.2877 54.5634 59.7825 56.0963 57.9901 56.0963C56.8271 56.0963 55.883 55.453 55.4041 54.8235V58.9706H54.4189V49.3898Z" fill="white"/>
<path d="M76.0674 35.2735V0.988281H100.06V3.33927H78.9073V16.4657H99.0803V18.7676H78.9073V32.9225H100.06V35.2735H76.0674Z" fill="white"/>
<path d="M52.8328 35.6358C42.4525 35.6358 34.9121 28.191 34.9121 17.8565C34.9121 7.57092 42.4525 0.0771484 52.8328 0.0771484C61.0587 0.0771484 67.3751 4.73014 69.7253 11.6362L67.6198 14.6728C66.1999 6.88521 60.4222 2.47711 52.8817 2.47711C44.1173 2.47711 37.752 8.94233 37.752 17.8565C37.752 26.7706 44.1173 33.2359 52.8817 33.2359C60.4222 33.2359 66.1999 28.8767 67.6198 21.0891L69.7253 24.1258C67.3751 30.9828 61.0587 35.6358 52.8328 35.6358Z" fill="white"/>
<path d="M0.0751953 35.2735L15.7926 0.988281H18.1428L33.8602 35.2735H30.7754L25.6832 24.0083H8.3011L3.1599 35.2735H0.0751953ZM9.32933 21.7064H24.655L18.2897 7.69839C17.7022 6.42494 17.4573 5.15148 17.4573 3.7311V3.33927H16.527V3.7311C16.527 5.15148 16.2822 6.37596 15.6946 7.69839L9.32933 21.7064Z" fill="white"/>
<path d="M106.508 13.4291C110.01 12.3696 109.373 7.92256 109.373 3.59132H106.409V0.988281H111.941V6.14891C111.941 11.0331 111.645 14.1663 106.508 15.9172V13.4291Z" fill="white"/>
<path d="M158.473 35.6192V25.2357H141.141V22.9826L157.739 1.33398H161.314V22.9826H169.931V25.2357H161.314V35.6192H158.473ZM143.001 22.9826H158.473V3.24416H157.495V3.68497C157.495 5.05639 157.103 6.1829 156.319 7.26044L146.38 20.2398C145.547 21.3173 144.519 21.8072 143.197 21.8072H143.001V22.9826Z" fill="white"/>
<path d="M138.339 6.32698C138.829 5.29842 139.563 4.71067 140.542 4.51476V3.38824H118.41V0.988281H143.039V2.65356L127.881 35.3317H124.797L138.339 6.32698Z" fill="white"/>
</g>
<defs>
<clipPath id="clip0_219_47667">
<rect width="170" height="59" fill="white"/>
</clipPath>
</defs>
</svg>
