<svg width="170" height="59" viewBox="0 0 170 59" fill="none" xmlns="http://www.w3.org/2000/svg">
<g clip-path="url(#clip0_69_25358)">
<path d="M108.718 46.1052H109.757V50.4713C110.251 49.8554 111.154 49.2532 112.289 49.2532C114.096 49.2532 115.587 50.786 115.587 52.6749C115.587 54.5637 114.082 56.0965 112.289 56.0965C111.112 56.0965 110.168 55.4533 109.704 54.8236V55.9597H108.718V46.1052ZM109.757 52.6749C109.757 54.0983 110.798 55.1384 112.125 55.1384C113.452 55.1384 114.493 54.0983 114.493 52.6749C114.493 51.2514 113.452 50.2113 112.125 50.2113C110.798 50.2113 109.757 51.2514 109.757 52.6749Z" fill="#222223"/>
<path d="M103.813 56.0965C102.472 56.0965 101.117 55.1521 101.117 53.1538V49.3899H102.157V53.0716C102.157 54.3582 102.855 55.1384 104.018 55.1384C105.263 55.1384 105.961 54.2624 105.961 53.0716V49.3899H107V55.9596H106.042V54.8783C105.51 55.7133 104.661 56.0965 103.813 56.0965Z" fill="#222223"/>
<path d="M98.5225 46.1052H99.5623V55.9597H98.5225V46.1052Z" fill="#222223"/>
<path d="M91.1826 52.6886C91.1826 50.7725 92.715 49.2532 94.6306 49.2532C95.7525 49.2532 96.7787 49.7733 97.326 50.6493L96.4914 51.2241C96.1083 50.5808 95.4242 50.2113 94.6306 50.2113C93.2897 50.2113 92.2771 51.2789 92.2771 52.6886C92.2771 54.0983 93.2897 55.1386 94.658 55.1386C95.4925 55.1386 96.1767 54.7553 96.6693 54.0299L97.5039 54.6048C96.9156 55.5354 95.8209 56.0965 94.6306 56.0965C92.7013 56.0965 91.1826 54.5911 91.1826 52.6886Z" fill="#222223"/>
<path d="M86.3965 46.1052H87.4363V55.9597H86.3965V46.1052Z" fill="#222223"/>
<path d="M81.822 56.0965C79.8654 56.0965 78.4014 54.6321 78.4014 52.6886C78.4014 50.7451 79.9065 49.2532 81.8495 49.2532C83.7239 49.2532 85.1059 50.6493 85.1059 52.5517C85.1059 52.7159 85.1059 52.8802 85.0785 53.0444H79.4686C79.6191 54.2763 80.577 55.1386 81.8495 55.1386C82.684 55.1386 83.3818 54.7553 83.8881 54.0299L84.7228 54.6048C84.1207 55.5354 83.0261 56.0965 81.822 56.0965ZM79.4823 52.1684H84.0249C83.8471 50.9641 82.9987 50.2113 81.822 50.2113C80.618 50.2113 79.7012 51.0051 79.4823 52.1684Z" fill="#222223"/>
<path d="M70.2432 52.6749C70.2432 50.786 71.7345 49.2532 73.5406 49.2532C74.6762 49.2532 75.5793 49.8691 76.0719 50.485V46.1052H77.1118V55.9597H76.1266V54.81C75.6614 55.4533 74.7173 56.0965 73.5406 56.0965C71.7482 56.0965 70.2432 54.5637 70.2432 52.6749ZM71.3377 52.6749C71.3377 54.0983 72.3776 55.1384 73.7048 55.1384C75.032 55.1384 76.0719 54.112 76.0719 52.6885C76.0719 51.2651 75.032 50.2113 73.7048 50.2113C72.3776 50.2113 71.3377 51.2514 71.3377 52.6749Z" fill="#222223"/>
<path d="M62.1123 52.6749C62.1123 50.7861 63.6037 49.2532 65.4099 49.2532C66.5865 49.2532 67.517 49.9102 67.9959 50.5398V49.39H68.981V55.9597H67.9959V54.8238C67.517 55.4533 66.5865 56.0965 65.4099 56.0965C63.6174 56.0965 62.1123 54.5637 62.1123 52.6749ZM63.2069 52.6749C63.2069 54.0983 64.2468 55.1386 65.5741 55.1386C66.9012 55.1386 67.9411 54.112 67.9411 52.6886C67.9411 51.2652 66.9012 50.2113 65.5741 50.2113C64.2468 50.2113 63.2069 51.2515 63.2069 52.6749Z" fill="#222223"/>
<path d="M55.4588 52.6886C55.4588 54.112 56.4988 55.1386 57.8259 55.1386C59.1531 55.1386 60.193 54.0983 60.193 52.6749C60.193 51.2515 59.1531 50.2113 57.8259 50.2113C56.4988 50.2113 55.4588 51.2652 55.4588 52.6886ZM54.4189 49.39H55.4041V50.5535C55.883 49.9102 56.8135 49.2532 57.9901 49.2532C59.7962 49.2532 61.2877 50.7861 61.2877 52.6749C61.2877 54.5637 59.7825 56.0966 57.9901 56.0966C56.8271 56.0966 55.883 55.4533 55.4041 54.8238V58.9709H54.4189V49.39Z" fill="#222223"/>
<path d="M76.0674 35.2735V0.988281H100.06V3.33927H78.9073V16.4657H99.0803V18.7676H78.9073V32.9225H100.06V35.2735H76.0674Z" fill="#222223"/>
<path d="M52.8328 35.6358C42.4525 35.6358 34.9121 28.191 34.9121 17.8565C34.9121 7.57092 42.4525 0.0771484 52.8328 0.0771484C61.0587 0.0771484 67.3751 4.73014 69.7253 11.6362L67.6198 14.6728C66.1999 6.88521 60.4222 2.47711 52.8817 2.47711C44.1173 2.47711 37.752 8.94233 37.752 17.8565C37.752 26.7706 44.1173 33.2359 52.8817 33.2359C60.4222 33.2359 66.1999 28.8767 67.6198 21.0891L69.7253 24.1258C67.3751 30.9828 61.0587 35.6358 52.8328 35.6358Z" fill="#222223"/>
<path d="M0.0751953 35.2735L15.7926 0.988281H18.1428L33.8602 35.2735H30.7754L25.6832 24.0083H8.3011L3.1599 35.2735H0.0751953ZM9.32933 21.7064H24.655L18.2897 7.69839C17.7022 6.42494 17.4573 5.15148 17.4573 3.7311V3.33927H16.527V3.7311C16.527 5.15148 16.2822 6.37596 15.6946 7.69839L9.32933 21.7064Z" fill="#222223"/>
<path d="M106.508 13.4291C110.01 12.3696 109.373 7.92256 109.373 3.59132H106.409V0.988281H111.941V6.14891C111.941 11.0331 111.645 14.1663 106.508 15.9172V13.4291Z" fill="#222223"/>
<path d="M158.473 35.6197V25.2362H141.141V22.9831L157.739 1.33447H161.314V22.9831H169.931V25.2362H161.314V35.6197H158.473ZM143.001 22.9831H158.473V3.24465H157.495V3.68546C157.495 5.05687 157.103 6.18339 156.319 7.26092L146.38 20.2403C145.547 21.3178 144.519 21.8077 143.197 21.8077H143.001V22.9831Z" fill="#222223"/>
<path d="M138.339 6.32698C138.829 5.29842 139.563 4.71067 140.542 4.51476V3.38824H118.41V0.988281H143.039V2.65356L127.881 35.3317H124.797L138.339 6.32698Z" fill="#222223"/>
</g>
<defs>
<clipPath id="clip0_69_25358">
<rect width="170" height="59" fill="white"/>
</clipPath>
</defs>
</svg>
