<svg width="810" height="465" viewBox="0 0 810 465" fill="none" xmlns="http://www.w3.org/2000/svg">
<path d="M746.073 96.1286C751.249 87.5246 756.187 79.3375 761.511 70.5549C751.844 70.5549 743.009 70.5549 734.174 70.5549C733.493 70.5271 732.819 70.7054 732.241 71.0665C731.662 71.4276 731.206 71.9548 730.932 72.5794C727.63 77.9085 724.209 83.178 720.967 88.5369C720.076 90.1751 718.863 91.6158 717.401 92.7722C715.939 93.9285 714.258 94.7766 712.459 95.2652C705.481 97.3027 699.379 101.608 695.117 107.501L667.304 142.423C656.625 155.791 645.916 169.217 632.679 180.114C624.32 187.021 615.217 192.022 603.884 191.397C594.633 190.891 590.23 185.889 590.855 176.66C591.767 168.333 594.239 160.253 598.143 152.843C598.452 151.916 599.062 151.12 599.876 150.58C600.69 150.041 601.661 149.789 602.635 149.866C611.945 149.539 621.256 149.3 630.537 148.437C642.882 147.246 654.096 143.019 662.544 133.551C675.484 118.933 669.089 99.0462 650.08 94.8484C637.676 92.0797 625.867 94.64 614.385 99.6416C598.916 106.932 585.183 117.448 574.108 130.485C559.74 146.353 547.336 163.799 533.712 180.322C531.185 183.807 528.315 187.028 525.145 189.938C521.896 192.924 517.657 194.6 513.246 194.642C513.287 194.326 513.367 194.016 513.484 193.719C518.362 185.949 523.211 178.208 528.119 170.438C530.445 166.978 532.325 163.236 533.712 159.304C537.698 146.978 532.165 138.225 519.374 136.677C516.637 136.35 513.871 136.171 511.134 135.903C513.705 134.5 516.417 133.373 519.225 132.539C530.068 129.26 540.498 124.745 550.31 119.082C553.648 117.164 556.538 114.556 558.788 111.431C563.667 104.078 559.978 96.5454 551.143 96.2179C547.187 96.0095 543.231 96.2179 539.245 96.2179C538.48 96.1306 537.707 96.2774 537.027 96.6388C536.347 97.0002 535.793 97.5593 535.437 98.2423C532.462 103.303 529.22 108.305 526.067 113.307C522.121 119.661 516.33 124.658 509.468 127.627C499.625 131.734 490.004 136.355 480.644 141.47L475.646 144.239L475.17 143.763L533.028 50.8164C523.806 50.8164 515.18 50.8164 506.851 50.8164C506.011 50.7387 505.169 50.9194 504.435 51.3345C503.701 51.7495 503.112 52.379 502.746 53.1386C495.22 65.0472 487.604 76.9558 480.108 89.0727C478.379 92.1349 475.55 94.4235 472.196 95.4736C465.94 97.4312 460.457 101.305 456.519 106.549C442.895 123.637 429.361 140.815 415.588 157.755C407.716 168.107 398.271 177.158 387.596 184.579C380.418 189.671 371.675 192.065 362.907 191.338C361.372 191.323 359.856 191.001 358.447 190.39C357.038 189.78 355.766 188.894 354.704 187.785C353.643 186.675 352.814 185.364 352.266 183.929C351.718 182.494 351.462 180.964 351.514 179.429C351.421 175.933 351.842 172.442 352.763 169.069C357.076 153.23 365.733 139.684 375.43 126.734C381.051 118.676 387.861 111.519 395.628 105.507C397.915 103.705 400.596 102.47 403.451 101.904C407.199 101.368 408.984 103.065 408.687 106.817C408.381 109.587 407.553 112.274 406.248 114.736C403.217 120.51 399.303 125.773 394.646 130.336C393.813 131.17 392.445 131.914 394.646 132.956C400.367 135.943 406.902 136.988 413.268 135.933C420.794 134.504 426.654 130.634 429.004 122.863C430.568 117.552 430.036 111.843 427.518 106.913C425 101.982 420.687 98.2076 415.469 96.3667C406.71 93.1819 397.179 92.797 388.191 95.2652C370.849 99.1653 356.987 109.109 344.166 120.839C334.39 130.31 325.369 140.533 317.186 151.414C314.494 155.097 310.686 157.811 306.329 159.155L307.846 156.178C313.036 147.256 316.621 137.492 318.436 127.329C320.875 111.848 313.2 99.1057 298.624 95.0866C293.892 93.8427 288.993 93.3504 284.108 93.6278C269.24 94.2561 255.013 99.8654 243.712 109.555C224.853 125.126 211.794 144.388 207.302 168.741C204.328 185.562 214.025 199.644 230.445 202.115C242.612 203.952 255.049 202.085 266.141 196.756C278.774 190.459 289.834 181.404 298.505 170.259C299.309 169.307 299.814 168.086 301.48 168.027C312.457 167.64 320.429 161.745 327.181 153.796C331.286 148.913 335.183 143.793 339.08 138.91C339.734 138.077 340.24 137.064 341.34 136.796C341.881 136.617 342.465 136.617 343.006 136.796C343.601 137.183 343.185 137.809 343.006 138.285C342.828 138.761 342.144 139.684 341.727 140.369C335.778 150.402 329.829 160.494 328.282 172.492C327.069 178.972 328.464 185.669 332.164 191.123C335.864 196.577 341.568 200.346 348.033 201.609C355.693 203.317 363.626 203.389 371.315 201.819C379.004 200.249 386.275 197.073 392.653 192.499C406.099 183.567 416.451 171.361 426.505 158.976C439.891 142.483 453.039 125.751 466.365 109.168C467.466 107.829 468.924 105.149 470.56 106.191C472.196 107.233 470.262 109.704 469.31 111.223C451.641 139.486 433.952 167.709 416.242 195.893C415.135 197.12 414.375 198.62 414.041 200.239C422.757 200.239 431.354 200.239 439.95 200.239C440.85 200.313 441.751 200.111 442.532 199.658C443.314 199.206 443.939 198.526 444.323 197.709C450.629 187.408 457.263 177.315 463.391 166.925C470.411 155.016 481.239 148.437 493.822 143.941C497.309 142.526 501.183 142.378 504.768 143.525C506.003 143.892 507.086 144.651 507.853 145.687C508.62 146.724 509.03 147.981 509.022 149.271C509.08 151.951 508.379 154.594 506.999 156.892C504.59 161.12 502.002 165.258 499.444 169.396C497.105 172.794 495.206 176.476 493.792 180.352C490.282 191.933 495.696 200.894 507.654 202.621C512.038 203.3 516.518 203.01 520.779 201.77C525.039 200.531 528.976 198.372 532.314 195.446C538.709 190.057 543.29 183.15 548.466 176.72C558.431 164.305 568.218 151.742 578.213 139.267C580.235 136.677 580.265 136.677 582.972 137.362L580.949 140.607C575.298 149.955 569.884 159.363 567.891 170.379C565.124 185.592 572.65 198.125 587.077 201.549C596.516 203.822 606.398 203.441 615.634 200.448C629.228 196.101 639.818 187.318 649.456 177.256C661.83 164.275 672.956 150.253 684.14 136.26C691.577 126.873 699.083 117.544 706.658 108.275C707.759 106.965 709.633 105.298 711.061 106.31C712.489 107.323 711.061 109.288 710.169 110.836C702.573 122.923 694.968 135 687.353 147.068C681.612 156.207 675.663 165.228 670.189 174.517C662.663 187.229 668.94 200.537 683.516 202.532C689.698 203.515 696.03 202.865 701.884 200.645C707.738 198.426 712.911 194.715 716.891 189.879C723.519 181.653 729.629 173.023 735.185 164.037C735.185 164.037 735.185 163.62 734.948 163.293C733.105 163.412 731.257 163.412 729.415 163.293C727.791 162.992 726.113 163.234 724.64 163.982C723.167 164.73 721.981 165.942 721.264 167.431C717.668 173.406 713.61 179.09 709.127 184.431C706.472 187.792 703.056 190.474 699.162 192.255C695.267 194.036 691.006 194.864 686.728 194.672C686.877 194.148 687.076 193.639 687.323 193.154C704.576 164.652 721.829 136.171 739.082 107.71C739.42 107.116 739.933 106.64 740.55 106.347C741.167 106.054 741.859 105.958 742.533 106.072C747.53 106.072 752.528 106.072 757.406 106.072C758.358 106.072 759.518 106.519 760.381 105.358L766.003 96.1583L746.073 96.1286ZM614.147 127.299C619.74 119.542 626.309 112.537 633.69 106.459C636.176 104.351 639.088 102.807 642.227 101.934C646.719 100.832 648.95 103.095 648.177 107.62C647.712 110.129 646.859 112.55 645.648 114.795C640.621 124.298 633.118 132.26 623.933 137.838C618.061 141.41 611.139 142.851 604.33 141.917C607.256 136.821 610.537 131.936 614.147 127.299ZM288.719 136.231C280.221 154.116 268.573 170.323 254.332 184.073C250.708 187.864 246.274 190.785 241.362 192.618C233.271 195.238 228.779 191.576 229.464 183.27C230.792 173.723 233.975 164.529 238.834 156.207C247.17 139.79 258.234 124.91 271.555 112.205C275.442 108.163 280.295 105.181 285.655 103.542C292.14 101.904 296.215 105.209 296.096 108.811C295.729 118.39 293.208 127.763 288.719 136.231Z" fill="#262F63"/>
<path d="M192.637 179.551L189.662 180.98L185.438 182.945L180.738 185.118L176.276 187.202L172.707 188.839C172.052 189.167 171.398 189.524 170.714 189.792C169.108 190.417 169.792 187.381 169.97 185.922L170.238 183.838C172.261 170.083 174.343 156.299 176.187 142.515C177.228 134.923 177.139 135.102 184.516 133.197C200.282 129.088 213.519 121.288 221.224 106.253C228.66 91.7845 225.477 75.3209 213.608 66.3597C205.101 60.3502 194.897 57.2206 184.487 57.4283C171.904 57.0711 159.321 57.4283 146.768 57.4283C145.875 57.4283 144.775 56.9817 144.18 57.9344C142.276 60.9116 140.491 63.8887 138.498 67.0743C146.53 67.4017 146.827 68.0269 142.812 74.5171C142.812 74.7255 142.603 74.9339 142.455 75.1423C129.604 95.6846 116.714 116.237 103.784 136.799C93.8684 152.538 84.0322 168.287 74.2753 184.046C71.5982 188.393 68.326 191.519 62.7932 190.834C62.2869 190.693 61.7484 190.721 61.2597 190.915C60.771 191.108 60.3589 191.456 60.0862 191.906C58.4502 194.645 56.7249 197.354 55.0293 200.093C55.535 200.361 55.7135 200.54 55.892 200.54H103.754C104.557 200.54 105.39 200.54 105.926 199.795L111.578 190.864H104.587C102.148 190.864 101.612 189.346 102.207 187.321C102.528 186.332 103 185.398 103.606 184.552C113.362 168.694 123.139 152.945 132.936 137.305C133.531 136.352 133.977 135.31 135.494 135.34C140.818 135.34 146.173 135.34 151.676 135.34C150.07 145.224 148.493 154.811 146.976 164.427C145.459 174.043 144.001 183.897 142.455 193.662C141.741 198.456 143.109 200.212 147.898 200.272C152.687 200.331 169.494 200.272 170.357 200.272C175.325 199.944 197.783 187.5 197.783 187.5L193.827 178.926L192.637 179.551ZM155.067 125.039C150.516 125.039 145.994 125.039 140.64 125.039C145.548 117.18 150.07 109.915 154.621 102.681C161.492 91.6655 168.483 80.7096 175.235 69.6048C175.663 68.6746 176.383 67.9097 177.285 67.4261C178.187 66.9425 179.222 66.7667 180.233 66.9254C183.131 66.8668 186.029 67.0761 188.889 67.5506C191.84 68.0737 194.508 69.6313 196.416 71.9444C198.324 74.2574 199.346 77.1747 199.3 80.1737C199.747 96.1014 191.953 107.831 179.757 117.09C172.702 122.534 163.97 125.345 155.067 125.039Z" fill="#262F63"/>
<path d="M628.19 362.91C624.799 368.209 621.14 373.33 617.422 378.361C614.302 382.894 610.113 386.585 605.226 389.109C601.731 391.047 597.702 391.799 593.743 391.252C622.984 343.29 652.017 295.686 681.288 247.635C672.364 247.635 664.124 247.635 655.854 247.635C654.845 247.529 653.828 247.731 652.936 248.215C652.044 248.698 651.32 249.441 650.857 250.344C643.45 262.253 635.835 274.161 628.398 286.07C626.766 289.07 624.037 291.321 620.783 292.351C613.975 294.506 608.047 298.809 603.887 304.617C594.586 316.387 585.246 328.127 575.866 339.837C565.484 352.877 555.043 365.827 542.193 376.605C533.834 383.601 524.702 388.811 513.219 388.275C503.463 387.799 498.971 382.529 499.923 372.764C501.033 364.441 503.601 356.378 507.508 348.947C507.847 348.221 508.406 347.62 509.105 347.229C509.805 346.839 510.609 346.68 511.405 346.774C520.805 346.387 530.264 346.208 539.634 345.315C551.751 344.652 563.144 339.329 571.434 330.459C584.611 315.811 578.275 295.745 559.089 291.429C546.298 288.451 534.102 291.429 522.5 296.668C504.652 304.855 490.552 317.806 478.178 332.662C464.851 348.649 452.06 365.083 439.061 381.338C436.503 384.818 433.187 387.669 429.364 389.674C427.104 391.003 424.468 391.547 421.868 391.222L511.643 247.635C502.511 247.635 494.122 247.635 485.734 247.635C484.673 247.533 483.607 247.765 482.684 248.299C481.762 248.832 481.029 249.641 480.587 250.612C469.284 268.892 457.831 287.082 446.438 305.272C445.962 305.987 445.784 307.207 444.564 307.059C443.345 306.91 443.85 305.778 443.791 305.094C443.793 301.432 442.373 297.913 439.831 295.28C437.289 292.647 433.823 291.106 430.167 290.982C417.249 289.782 404.274 292.566 392.984 298.961C376.896 307.746 362.782 319.743 351.517 334.21C339.083 349.274 327.065 364.696 314.869 379.969C312.077 383.995 308.417 387.342 304.16 389.764C303.05 390.472 301.811 390.953 300.514 391.178C299.217 391.402 297.888 391.367 296.605 391.074L357.883 293.096C351.576 293.096 345.984 293.096 340.213 293.096C336.94 292.942 333.684 293.647 330.768 295.14C327.851 296.634 325.375 298.864 323.585 301.61C322.663 302.95 321.77 304.32 320.878 305.659C320.432 306.314 320.134 307.327 319.123 307.029C318.111 306.731 318.587 305.659 318.528 304.945C318.383 301.359 316.923 297.952 314.426 295.376C311.929 292.8 308.57 291.235 304.993 290.982C294.415 289.631 283.68 291.63 274.295 296.698C253.77 307.475 239.58 324.326 229.675 345.047C224.41 356.152 221.286 367.584 223.428 380.088C225.719 393.277 235.684 401.196 248.534 399.767C254.815 399.175 260.794 396.787 265.757 392.89C268.732 390.538 271.707 387.948 274.681 385.447C275.306 384.941 275.842 384.196 276.793 384.554C277.745 384.911 277.299 385.744 277.388 386.37C277.389 389.667 278.644 392.841 280.898 395.247C283.152 397.652 286.237 399.108 289.525 399.32C302.762 401.553 313.322 396.641 321.503 386.548C332.39 373.211 342.95 359.754 353.659 346.148L362.583 334.984C363.445 333.883 364.665 332.96 365.795 333.853C366.926 334.746 365.498 335.669 365.022 336.473C362.047 341.713 358.835 346.833 356.098 352.162C351.714 359.741 349.434 368.354 349.494 377.111C349.881 389.853 357.109 398.546 368.71 399.707C375.72 400.405 382.756 398.67 388.641 394.795C392.449 392.31 396.006 389.458 399.26 386.28C400.063 385.536 400.688 384.107 402.027 384.583C403.365 385.06 402.651 386.429 402.77 387.382C403.049 390.166 404.21 392.789 406.082 394.867C407.955 396.945 410.443 398.37 413.182 398.933C415.216 399.44 417.302 399.71 419.399 399.737C431.952 400.243 441.054 394.051 448.521 384.643L487.191 336.026C488.292 334.597 489.303 332.722 492.07 333.942C490.82 335.967 489.66 337.693 488.619 339.48C483.145 347.844 479.178 357.104 476.899 366.84C473.924 382.797 481.747 395.242 497.424 398.576C504.837 400.137 512.494 400.133 519.906 398.564C527.317 396.995 534.32 393.897 540.467 389.466C552.366 381.428 561.766 370.74 571.017 359.992C585.742 342.874 599.276 324.802 613.584 307.327C615.042 305.54 616.559 301.61 619.088 303.307C621.616 305.004 618.046 307.535 616.857 309.44C604.482 329.288 592.048 349.046 579.554 368.715C577.878 371.217 576.519 373.917 575.509 376.754C571.79 388.067 577.442 397.594 589.133 399.261C595.951 400.428 602.961 399.621 609.337 396.937C615.714 394.252 621.191 389.801 625.126 384.107C630.332 377.289 635.032 370.055 639.999 362.969C640.535 362.165 641.546 361.511 641.249 359.992C638.839 359.992 636.4 360.171 634.02 359.992C632.864 359.779 631.669 359.948 630.617 360.474C629.565 361.001 628.713 361.856 628.19 362.91ZM545.137 301.581C547.182 300.019 549.586 298.995 552.128 298.603C556.055 298.127 557.839 299.943 557.185 303.873C556.982 305.596 556.531 307.281 555.846 308.875C550.555 320.86 541.227 330.606 529.491 336.413C524.304 338.58 518.672 339.468 513.071 339.003C522.114 324.505 531.662 311.405 545.137 301.581ZM268.494 381.964C265.218 384.948 261.268 387.094 256.982 388.215C250.557 389.734 246.749 386.786 246.72 380.296C246.884 373.334 248.548 366.49 251.598 360.23C259.788 341.419 271.744 324.487 286.729 310.482C290.313 306.796 294.746 304.046 299.639 302.474C306.272 300.687 311.865 302.474 311.151 310.453C310.704 317.799 308.749 324.974 305.41 331.531C296.811 350.833 284.183 368.07 268.375 382.083L268.494 381.964ZM396.137 380.088C392.511 383.724 388.062 386.431 383.167 387.977C375.552 390.002 371.269 386.489 372.042 378.659C373.006 370.463 375.509 362.524 379.419 355.259C387.891 337.337 399.95 321.347 414.847 308.279C418.39 304.86 422.916 302.642 427.787 301.938C434.093 301.402 436.711 304.081 436.711 310.869C435.956 319.017 433.557 326.927 429.661 334.121C421.44 351.462 410.026 367.097 396.018 380.207L396.137 380.088Z" fill="#262F63"/>
<path d="M234.999 310.751C245.648 290.983 240.949 258.204 205.996 254.483C192.432 253.024 178.778 254.185 165.184 253.887C164.5 253.887 163.845 253.887 163.369 254.602C161.614 257.579 159.8 260.556 157.866 263.533C165.898 263.95 166.195 264.545 162.239 270.946C162.031 271.244 161.882 271.542 161.674 271.839L121.546 336.205C112.225 351.051 102.934 365.937 93.6731 380.862C91.0554 385.09 87.8725 388.097 82.4289 387.472C81.5365 387.472 80.4954 387.204 79.8707 388.156C78.0561 391.134 76.3011 393.932 74.2783 397.088H123.479C123.879 397.175 124.295 397.142 124.675 396.994C125.056 396.845 125.385 396.588 125.621 396.254L131.094 387.323H124.282C121.694 387.323 121.01 385.834 121.724 383.631C122.187 382.448 122.797 381.328 123.539 380.297C130.351 369.341 137.282 358.504 143.915 347.548C144.555 346.229 145.58 345.135 146.855 344.412C148.13 343.689 149.594 343.37 151.054 343.499C164.411 343.499 177.826 344.779 191.063 341.892C210.042 337.724 225.57 328.375 234.999 310.751ZM209.03 302.683C200.106 318.283 187.732 329.864 169.259 333.198C163.721 333.84 158.138 334.009 152.571 333.705L173.067 300.956C180.325 289.345 187.613 277.734 194.782 266.094C195.14 265.227 195.785 264.509 196.607 264.06C197.43 263.61 198.381 263.456 199.303 263.623C200.462 263.697 201.625 263.697 202.784 263.623C204.474 263.571 206.158 263.854 207.738 264.455C209.319 265.056 210.766 265.963 211.996 267.125C213.225 268.286 214.214 269.679 214.905 271.224C215.595 272.769 215.975 274.435 216.021 276.127C216.624 285.494 214.194 294.807 209.09 302.683H209.03Z" fill="#262F63"/>
</svg>
