<svg width="16" height="16" viewBox="0 0 16 16" fill="none" xmlns="http://www.w3.org/2000/svg">
<path d="M13.0004 1.25H10.5004C10.3015 1.25 10.1107 1.32902 9.97007 1.46967C9.82942 1.61032 9.7504 1.80109 9.7504 2C9.7504 2.19891 9.82942 2.38968 9.97007 2.53033C10.1107 2.67098 10.3015 2.75 10.5004 2.75H11.1879L10.2104 3.72937C9.70987 3.31344 9.1205 3.01801 8.48774 2.86586C7.85498 2.71371 7.19573 2.70891 6.56083 2.85183C5.92592 2.99475 5.33231 3.28156 4.82578 3.69016C4.31924 4.09876 3.91331 4.61823 3.63928 5.20852C3.36525 5.79881 3.23044 6.44414 3.24524 7.09477C3.26005 7.7454 3.42407 8.38393 3.72467 8.96114C4.02527 9.53835 4.45441 10.0388 4.97901 10.424C5.50361 10.8091 6.10965 11.0686 6.7504 11.1825V12H5.5004C5.30148 12 5.11072 12.079 4.97007 12.2197C4.82941 12.3603 4.7504 12.5511 4.7504 12.75C4.7504 12.9489 4.82941 13.1397 4.97007 13.2803C5.11072 13.421 5.30148 13.5 5.5004 13.5H6.7504V14.5C6.7504 14.6989 6.82941 14.8897 6.97007 15.0303C7.11072 15.171 7.30149 15.25 7.5004 15.25C7.69931 15.25 7.89007 15.171 8.03073 15.0303C8.17138 14.8897 8.2504 14.6989 8.2504 14.5V13.5H9.5004C9.69931 13.5 9.89007 13.421 10.0307 13.2803C10.1714 13.1397 10.2504 12.9489 10.2504 12.75C10.2504 12.5511 10.1714 12.3603 10.0307 12.2197C9.89007 12.079 9.69931 12 9.5004 12H8.2504V11.1825C8.92162 11.0628 9.55414 10.7831 10.0944 10.3673C10.6347 9.9514 11.0669 9.41151 11.3545 8.79329C11.642 8.17506 11.7764 7.49668 11.7463 6.81552C11.7163 6.13436 11.5226 5.47047 11.1816 4.88L12.2504 3.8125V4.5C12.2504 4.69891 12.3294 4.88968 12.4701 5.03033C12.6107 5.17098 12.8015 5.25 13.0004 5.25C13.1993 5.25 13.3901 5.17098 13.5307 5.03033C13.6714 4.88968 13.7504 4.69891 13.7504 4.5V2C13.7504 1.80109 13.6714 1.61032 13.5307 1.46967C13.3901 1.32902 13.1993 1.25 13.0004 1.25ZM7.5004 9.75C6.9565 9.75 6.42481 9.58871 5.97258 9.28654C5.52034 8.98437 5.16787 8.55488 4.95973 8.05238C4.75159 7.54988 4.69713 6.99695 4.80324 6.4635C4.90935 5.93005 5.17126 5.44005 5.55585 5.05546C5.94045 4.67086 6.43045 4.40895 6.9639 4.30284C7.49735 4.19673 8.05028 4.25119 8.55278 4.45933C9.05527 4.66747 9.48476 5.01995 9.78694 5.47218C10.0891 5.92442 10.2504 6.4561 10.2504 7C10.2496 7.72909 9.95957 8.42808 9.44403 8.94363C8.92848 9.45918 8.22949 9.74917 7.5004 9.75Z" fill="#222223"/>
</svg>
