<svg width="5" height="9" viewBox="0 0 5 9" fill="none" xmlns="http://www.w3.org/2000/svg">
<path d="M4.82983 4.82983L0.985985 8.67367C0.877668 8.78199 0.730759 8.84284 0.577577 8.84284C0.424394 8.84284 0.277485 8.78199 0.169168 8.67367C0.0608515 8.56536 1.1413e-09 8.41845 0 8.26526C-1.1413e-09 8.11208 0.0608515 7.96517 0.169168 7.85686L3.60508 4.4219L0.170129 0.985985C0.116496 0.932352 0.0739522 0.868681 0.0449263 0.798606C0.0159003 0.728531 0.0009608 0.653425 0.0009608 0.577577C0.000960799 0.501728 0.0159003 0.426622 0.0449263 0.356548C0.0739522 0.286473 0.116496 0.222801 0.170129 0.169168C0.223762 0.115535 0.287434 0.0729914 0.357509 0.0439655C0.427584 0.0149395 0.502689 -5.65115e-10 0.578538 0C0.654386 5.65115e-10 0.729492 0.0149395 0.799567 0.0439655C0.869642 0.0729914 0.933313 0.115535 0.986946 0.169168L4.83079 4.01301C4.88448 4.06664 4.92705 4.13034 4.95607 4.20046C4.98509 4.27058 4.99998 4.34573 4.99989 4.42162C4.9998 4.49751 4.98474 4.57263 4.95555 4.64268C4.92637 4.71273 4.88364 4.77633 4.82983 4.82983Z" fill="#262F63"/>
</svg>
