<svg width="24" height="24" viewBox="0 0 24 24" fill="none" xmlns="http://www.w3.org/2000/svg">
<path d="M6.6001 13.1246C6.6001 13.0003 6.49936 12.8996 6.3751 12.8996H4.1251C4.00083 12.8996 3.9001 13.0003 3.9001 13.1246V19.8746C3.9001 19.9989 4.00083 20.0996 4.1251 20.0996H6.3751C6.49936 20.0996 6.6001 19.9989 6.6001 19.8746V13.1246ZM13.3501 8.62461C13.3501 8.50034 13.2494 8.39961 13.1251 8.39961H10.8751C10.7508 8.39961 10.6501 8.50035 10.6501 8.62461V19.8746C10.6501 19.9989 10.7508 20.0996 10.8751 20.0996H13.1251C13.2494 20.0996 13.3501 19.9989 13.3501 19.8746V8.62461ZM20.1001 4.12461C20.1001 4.00035 19.9994 3.89961 19.8751 3.89961H17.6251C17.5008 3.89961 17.4001 4.00035 17.4001 4.12461V19.8746C17.4001 19.9989 17.5008 20.0996 17.6251 20.0996H19.8751C19.9994 20.0996 20.1001 19.9989 20.1001 19.8746V4.12461ZM8.4001 19.8746C8.4001 20.993 7.49347 21.8996 6.3751 21.8996H4.1251C3.00672 21.8996 2.1001 20.993 2.1001 19.8746V13.1246C2.1001 12.0062 3.00672 11.0996 4.1251 11.0996H6.3751C7.49347 11.0996 8.4001 12.0062 8.4001 13.1246V19.8746ZM15.1501 19.8746C15.1501 20.993 14.2435 21.8996 13.1251 21.8996H10.8751C9.75672 21.8996 8.8501 20.993 8.8501 19.8746V8.62461C8.8501 7.50623 9.75672 6.59961 10.8751 6.59961H13.1251C14.2435 6.59961 15.1501 7.50623 15.1501 8.62461V19.8746ZM21.9001 19.8746C21.9001 20.993 20.9935 21.8996 19.8751 21.8996H17.6251C16.5067 21.8996 15.6001 20.993 15.6001 19.8746V4.12461C15.6001 3.00623 16.5067 2.09961 17.6251 2.09961H19.8751C20.9935 2.09961 21.9001 3.00623 21.9001 4.12461V19.8746Z" fill="#222223"/>
</svg>
