<svg width="21" height="21" viewBox="0 0 21 21" fill="none" xmlns="http://www.w3.org/2000/svg">
<path d="M9.72472 10.4857C9.72472 10.7933 9.63351 11.094 9.46262 11.3498C9.29173 11.6055 9.04884 11.8049 8.76466 11.9226C8.48048 12.0403 8.16778 12.0711 7.86609 12.0111C7.56441 11.9511 7.2873 11.8029 7.0698 11.5854C6.8523 11.3679 6.70418 11.0908 6.64417 10.7891C6.58416 10.4875 6.61496 10.1748 6.73267 9.89058C6.85038 9.6064 7.04972 9.36351 7.30547 9.19262C7.56122 9.02173 7.86191 8.93052 8.1695 8.93052C8.58197 8.93052 8.97755 9.09437 9.26921 9.38603C9.56087 9.67769 9.72472 10.0733 9.72472 10.4857ZM12.8352 8.93052C12.5276 8.93052 12.2269 9.02173 11.9711 9.19262C11.7154 9.36351 11.516 9.6064 11.3983 9.89058C11.2806 10.1748 11.2498 10.4875 11.3098 10.7891C11.3698 11.0908 11.518 11.3679 11.7355 11.5854C11.953 11.8029 12.2301 11.9511 12.5317 12.0111C12.8334 12.0711 13.1461 12.0403 13.4303 11.9226C13.7145 11.8049 13.9574 11.6055 14.1283 11.3498C14.2992 11.094 14.3904 10.7933 14.3904 10.4857C14.3904 10.0733 14.2265 9.67769 13.9349 9.38603C13.6432 9.09437 13.2476 8.93052 12.8352 8.93052ZM21.0001 10.4857C21.0004 12.2839 20.5389 14.0521 19.6597 15.6207C18.7805 17.1893 17.5131 18.5057 15.9791 19.4438C14.445 20.382 12.6956 20.9103 10.8987 20.9782C9.10184 21.0461 7.31762 20.6513 5.71712 19.8316L2.56489 20.8863C2.22173 21.0019 1.85309 21.0194 1.50051 20.9368C1.14794 20.8542 0.825451 20.6747 0.569391 20.4187C0.313332 20.1626 0.133882 19.8401 0.0512673 19.4876C-0.0313474 19.135 -0.0138427 18.7663 0.101808 18.4232L1.15255 15.271C0.431019 13.8576 0.0392881 12.2991 0.00681274 10.7126C-0.0256626 9.12603 0.301963 7.55278 0.965056 6.1111C1.62815 4.66942 2.60945 3.39683 3.83519 2.389C5.06092 1.38118 6.49919 0.664355 8.04185 0.292421C9.58451 -0.0795126 11.1914 -0.0968743 12.7418 0.241641C14.2921 0.580157 15.7455 1.26574 16.9927 2.24684C18.24 3.22795 19.2485 4.47904 19.9426 5.90606C20.6367 7.33307 20.9982 8.89888 21.0001 10.4857ZM18.6672 10.4857C18.6667 9.23334 18.3782 7.99785 17.8238 6.87482C17.2695 5.75179 16.4642 4.77134 15.4703 4.00931C14.4764 3.24728 13.3206 2.7241 12.0922 2.48024C10.8637 2.23638 9.59568 2.27838 8.38608 2.60298C7.17648 2.92759 6.05777 3.52611 5.11649 4.35223C4.17521 5.17835 3.43658 6.20993 2.95775 7.36718C2.47893 8.52443 2.27273 9.77631 2.35512 11.026C2.43751 12.2757 2.80628 13.4897 3.43289 14.574C3.51571 14.717 3.5672 14.876 3.58396 15.0403C3.60072 15.2047 3.58236 15.3708 3.53009 15.5276L2.56489 18.4232L5.46051 17.458C5.57962 17.4183 5.70432 17.398 5.82987 17.3977C6.03473 17.3981 6.23588 17.4524 6.41308 17.5552C7.65436 18.2734 9.06292 18.6521 10.497 18.653C11.9311 18.6539 13.3402 18.2771 14.5824 17.5605C15.8246 16.8438 16.8562 15.8127 17.5732 14.5707C18.2903 13.3288 18.6676 11.9198 18.6672 10.4857Z" fill="#89867E"/>
</svg>
