<svg width="24" height="24" viewBox="0 0 24 24" fill="none" xmlns="http://www.w3.org/2000/svg">
<path d="M11.25 12.0002C11.25 12.2968 11.1621 12.5868 10.9973 12.8335C10.8324 13.0802 10.5982 13.2724 10.3241 13.386C10.05 13.4995 9.74839 13.5292 9.45741 13.4713C9.16644 13.4135 8.89917 13.2706 8.68939 13.0608C8.47961 12.851 8.33675 12.5838 8.27887 12.2928C8.22099 12.0018 8.2507 11.7002 8.36423 11.4261C8.47776 11.152 8.67002 10.9178 8.91669 10.753C9.16337 10.5881 9.45338 10.5002 9.75005 10.5002C10.1479 10.5002 10.5294 10.6582 10.8107 10.9395C11.092 11.2208 11.25 11.6023 11.25 12.0002ZM14.25 10.5002C13.9534 10.5002 13.6634 10.5881 13.4167 10.753C13.17 10.9178 12.9778 11.152 12.8642 11.4261C12.7507 11.7002 12.721 12.0018 12.7789 12.2928C12.8367 12.5838 12.9796 12.851 13.1894 13.0608C13.3992 13.2706 13.6664 13.4135 13.9574 13.4713C14.2484 13.5292 14.55 13.4995 14.8241 13.386C15.0982 13.2724 15.3324 13.0802 15.4973 12.8335C15.6621 12.5868 15.75 12.2968 15.75 12.0002C15.75 11.6023 15.592 11.2208 15.3107 10.9395C15.0294 10.6582 14.6479 10.5002 14.25 10.5002ZM22.125 12.0002C22.1254 13.7345 21.6803 15.4399 20.8323 16.9528C19.9843 18.4657 18.7619 19.7354 17.2823 20.6402C15.8027 21.545 14.1155 22.0546 12.3824 22.1201C10.6493 22.1856 8.92841 21.8048 7.38474 21.0142L4.34442 22.0314C4.01345 22.143 3.6579 22.1598 3.31784 22.0802C2.97779 22.0005 2.66675 21.8274 2.41978 21.5804C2.17281 21.3335 1.99973 21.0224 1.92005 20.6824C1.84037 20.3423 1.85725 19.9868 1.9688 19.6558L2.98224 16.6155C2.28632 15.2523 1.9085 13.7491 1.87718 12.2189C1.84585 10.6887 2.16185 9.17134 2.8014 7.78084C3.44095 6.39035 4.38741 5.16294 5.56962 4.1909C6.75184 3.21886 8.13904 2.52749 9.62693 2.16876C11.1148 1.81003 12.6647 1.79328 14.16 2.11978C15.6553 2.44628 17.0571 3.10752 18.26 4.05379C19.4629 5.00006 20.4357 6.20673 21.1052 7.58308C21.7746 8.95943 22.1233 10.4696 22.125 12.0002ZM19.875 12.0002C19.8746 10.7922 19.5963 9.6006 19.0616 8.51745C18.5269 7.43429 17.7503 6.48865 16.7917 5.75368C15.8331 5.01871 14.7182 4.5141 13.5334 4.2789C12.3486 4.0437 11.1256 4.0842 9.95894 4.39728C8.79229 4.71037 7.7133 5.28763 6.80543 6.08442C5.89757 6.88121 5.18517 7.87617 4.72334 8.99233C4.26152 10.1085 4.06264 11.3159 4.14211 12.5212C4.22157 13.7265 4.57725 14.8974 5.18161 15.9433C5.26149 16.0812 5.31116 16.2345 5.32732 16.3931C5.34348 16.5516 5.32577 16.7118 5.27536 16.863L4.34442 19.6558L7.13724 18.7248C7.25212 18.6866 7.3724 18.667 7.49349 18.6667C7.69107 18.6671 7.88508 18.7195 8.05599 18.8186C9.2532 19.5113 10.6117 19.8765 11.9949 19.8774C13.3781 19.8783 14.7371 19.5149 15.9353 18.8237C17.1334 18.1325 18.1283 17.138 18.8199 15.9401C19.5115 14.7422 19.8755 13.3833 19.875 12.0002Z" fill="#89867E"/>
</svg>
