<svg width="36" height="36" viewBox="0 0 36 36" fill="none" xmlns="http://www.w3.org/2000/svg">
<rect width="36" height="36" rx="18" fill="#F0F0F0"/>
<path d="M26.1632 14.2883L16.1632 24.2883C16.0761 24.3757 15.9727 24.445 15.8587 24.4923C15.7447 24.5397 15.6226 24.564 15.4992 24.564C15.3758 24.564 15.2536 24.5397 15.1397 24.4923C15.0257 24.445 14.9222 24.3757 14.8351 24.2883L10.4601 19.9133C10.3729 19.8261 10.3037 19.7225 10.2565 19.6086C10.2093 19.4947 10.1851 19.3725 10.1851 19.2492C10.1851 19.1259 10.2093 19.0038 10.2565 18.8898C10.3037 18.7759 10.3729 18.6724 10.4601 18.5851C10.5473 18.4979 10.6509 18.4288 10.7648 18.3816C10.8787 18.3344 11.0009 18.3101 11.1242 18.3101C11.2475 18.3101 11.3696 18.3344 11.4836 18.3816C11.5975 18.4288 11.701 18.4979 11.7882 18.5851L15.5 22.2969L24.8367 12.9617C25.0128 12.7856 25.2517 12.6866 25.5007 12.6866C25.7498 12.6866 25.9887 12.7856 26.1648 12.9617C26.3409 13.1378 26.4399 13.3767 26.4399 13.6258C26.4399 13.8748 26.3409 14.1137 26.1648 14.2898L26.1632 14.2883Z" fill="#262F63"/>
</svg>
