<svg width="11" height="11" viewBox="0 0 11 11" fill="none" xmlns="http://www.w3.org/2000/svg">
<path d="M0.295248 9.20657C-0.0957563 9.58959 -0.103736 10.2918 0.303228 10.6988C0.710192 11.1057 1.4124 11.0898 1.79543 10.7067L5.49801 7.00417L9.20058 10.6988C9.59956 11.0978 10.2858 11.1057 10.6928 10.6908C11.0997 10.2838 11.0997 9.59757 10.7008 9.19859L7.00617 5.50399L10.7008 1.80141C11.0997 1.40243 11.0997 0.716177 10.6928 0.309213C10.2858 -0.105731 9.59956 -0.0977512 9.20058 0.301233L5.49801 3.99583L1.79543 0.293254C1.4124 -0.0897715 0.710192 -0.105731 0.303228 0.301233C-0.103736 0.708197 -0.0957563 1.41041 0.295248 1.80141L3.99782 5.50399L0.295248 9.20657Z" fill="white"/>
</svg>
