<svg width="30" height="30" viewBox="0 0 30 30" fill="none" xmlns="http://www.w3.org/2000/svg">
<path fill-rule="evenodd" clip-rule="evenodd" d="M15 30C23.2843 30 30 23.2843 30 15C30 6.71573 23.2843 0 15 0C6.71573 0 0 6.71573 0 15C0 23.2843 6.71573 30 15 30Z" fill="#AEAEAE"/>
<path d="M9.78906 19.0137C9.40625 19.3887 9.39844 20.0762 9.79688 20.4746C10.1953 20.873 10.8828 20.8574 11.2578 20.4824L14.8828 16.8574L18.5078 20.4746C18.8984 20.8652 19.5703 20.873 19.9688 20.4668C20.3672 20.0684 20.3672 19.3965 19.9766 19.0059L16.3594 15.3887L19.9766 11.7637C20.3672 11.373 20.3672 10.7012 19.9688 10.3027C19.5703 9.89648 18.8984 9.9043 18.5078 10.2949L14.8828 13.9121L11.2578 10.2871C10.8828 9.91211 10.1953 9.89648 9.79688 10.2949C9.39844 10.6934 9.40625 11.3809 9.78906 11.7637L13.4141 15.3887L9.78906 19.0137Z" fill="white"/>
</svg>
