<svg width="22" height="16" viewBox="0 0 22 16" fill="none" xmlns="http://www.w3.org/2000/svg">
<path d="M20 0.125H2C1.50272 0.125 1.02581 0.322544 0.674175 0.674175C0.322544 1.02581 0.125 1.50272 0.125 2V14C0.125 14.4973 0.322544 14.9742 0.674175 15.3258C1.02581 15.6775 1.50272 15.875 2 15.875H20C20.4973 15.875 20.9742 15.6775 21.3258 15.3258C21.6775 14.9742 21.875 14.4973 21.875 14V2C21.875 1.50272 21.6775 1.02581 21.3258 0.674175C20.9742 0.322544 20.4973 0.125 20 0.125ZM19.625 10.625H19.25C18.5538 10.625 17.8861 10.3484 17.3938 9.85616C16.9016 9.36387 16.625 8.69619 16.625 8C16.625 7.30381 16.9016 6.63613 17.3938 6.14384C17.8861 5.65156 18.5538 5.375 19.25 5.375H19.625V10.625ZM2.375 5.375H2.75C3.44619 5.375 4.11387 5.65156 4.60616 6.14384C5.09844 6.63613 5.375 7.30381 5.375 8C5.375 8.69619 5.09844 9.36387 4.60616 9.85616C4.11387 10.3484 3.44619 10.625 2.75 10.625H2.375V5.375ZM2.375 12.875H2.75C4.04293 12.875 5.28291 12.3614 6.19715 11.4471C7.11139 10.5329 7.625 9.29293 7.625 8C7.625 6.70707 7.11139 5.46709 6.19715 4.55285C5.28291 3.63861 4.04293 3.125 2.75 3.125H2.375V2.375H9.875V13.625H2.375V12.875ZM12.125 13.625V2.375H19.625V3.125H19.25C17.9571 3.125 16.7171 3.63861 15.8029 4.55285C14.8886 5.46709 14.375 6.70707 14.375 8C14.375 9.29293 14.8886 10.5329 15.8029 11.4471C16.7171 12.3614 17.9571 12.875 19.25 12.875H19.625V13.625H12.125Z" fill="black"/>
</svg>
