<svg width="24" height="24" viewBox="0 0 24 24" fill="none" xmlns="http://www.w3.org/2000/svg">
<path d="M12 18H20C21.1046 18 22 17.1046 22 16V8C22 6.89543 21.1046 6 20 6H4C2.89543 6 2 6.89543 2 8V16C2 17.1046 2.89543 18 4 18H12ZM12 18V14M12 6V10" stroke="white" stroke-width="2" stroke-linecap="round" stroke-linejoin="round"/>
<path d="M12 14C13.1046 14 14 13.1046 14 12C14 10.8954 13.1046 10 12 10C10.8954 10 10 10.8954 10 12C10 13.1046 10.8954 14 12 14Z" stroke="white" stroke-width="2" stroke-linecap="round" stroke-linejoin="round"/>
<path d="M5.5 12C5.5 12.5304 5.28929 13.0391 4.91421 13.4142C4.53914 13.7893 4.03043 14 3.5 14C2.67157 14 2 13.3284 2 12.5V11.5C2 10.6716 2.67157 10 3.5 10C4.03043 10 4.53914 10.2107 4.91421 10.5858C5.28929 10.9609 5.5 11.4696 5.5 12ZM18.5 12C18.5 12.5304 18.7107 13.0391 19.0858 13.4142C19.4609 13.7893 19.9696 14 20.5 14C21.3284 14 22 13.3284 22 12.5V11.5C22 10.6716 21.3284 10 20.5 10C19.9696 10 19.4609 10.2107 19.0858 10.5858C18.7107 10.9609 18.5 11.4696 18.5 12Z" stroke="white" stroke-width="2" stroke-linecap="round" stroke-linejoin="round"/>
</svg>
