<svg width="32" height="32" viewBox="0 0 32 32" fill="none" xmlns="http://www.w3.org/2000/svg">
<path d="M16 24H27.3334C28.4379 24 29.3334 23.1046 29.3334 22V10C29.3334 8.89543 28.4379 8 27.3334 8H4.66668C3.56212 8 2.66669 8.89543 2.66669 10V22C2.66669 23.1046 3.56212 24 4.66669 24H16ZM16 24V18.6667M16 8V13.3333" stroke="white" stroke-width="2" stroke-linecap="round" stroke-linejoin="round"/>
<path d="M16 18.6668C17.4728 18.6668 18.6667 17.4729 18.6667 16.0002C18.6667 14.5274 17.4728 13.3335 16 13.3335C14.5273 13.3335 13.3334 14.5274 13.3334 16.0002C13.3334 17.4729 14.5273 18.6668 16 18.6668Z" stroke="white" stroke-width="2" stroke-linecap="round" stroke-linejoin="round"/>
<path d="M7.33335 16.0002C7.33335 16.7074 7.0524 17.3857 6.5523 17.8858C6.05221 18.3859 5.37393 18.6668 4.66669 18.6668V18.6668C3.56212 18.6668 2.66669 17.7714 2.66669 16.6668V15.3335C2.66669 14.2289 3.56212 13.3335 4.66669 13.3335V13.3335C5.37393 13.3335 6.05221 13.6144 6.5523 14.1145C7.0524 14.6146 7.33335 15.2929 7.33335 16.0002ZM24.6667 16.0002C24.6667 16.7074 24.9476 17.3857 25.4477 17.8858C25.9478 18.3859 26.6261 18.6668 27.3334 18.6668V18.6668C28.4379 18.6668 29.3334 17.7714 29.3334 16.6668V15.3335C29.3334 14.2289 28.4379 13.3335 27.3334 13.3335V13.3335C26.6261 13.3335 25.9478 13.6144 25.4477 14.1145C24.9476 14.6146 24.6667 15.2929 24.6667 16.0002Z" stroke="white" stroke-width="2" stroke-linecap="round" stroke-linejoin="round"/>
</svg>
