<svg width="36" height="36" viewBox="0 0 36 36" fill="none" xmlns="http://www.w3.org/2000/svg">
<rect width="36" height="36" rx="18" fill="#F0F0F0"/>
<path d="M24.2882 22.9617C24.4644 23.1379 24.5633 23.3767 24.5633 23.6258C24.5633 23.8749 24.4644 24.1137 24.2882 24.2899C24.1121 24.466 23.8733 24.5649 23.6242 24.5649C23.3751 24.5649 23.1362 24.466 22.9601 24.2899L18 19.3281L13.0382 24.2883C12.8621 24.4644 12.6233 24.5634 12.3742 24.5634C12.1251 24.5634 11.8862 24.4644 11.7101 24.2883C11.534 24.1122 11.4351 23.8733 11.4351 23.6242C11.4351 23.3752 11.534 23.1363 11.7101 22.9602L16.6718 18L11.7117 13.0383C11.5356 12.8622 11.4366 12.6233 11.4366 12.3742C11.4366 12.1252 11.5356 11.8863 11.7117 11.7102C11.8878 11.5341 12.1267 11.4351 12.3757 11.4351C12.6248 11.4351 12.8637 11.5341 13.0398 11.7102L18 16.6719L22.9617 11.7094C23.1378 11.5333 23.3767 11.4343 23.6257 11.4343C23.8748 11.4343 24.1137 11.5333 24.2898 11.7094C24.4659 11.8855 24.5649 12.1244 24.5649 12.3735C24.5649 12.6225 24.4659 12.8614 24.2898 13.0375L19.3281 18L24.2882 22.9617Z" fill="#EC2D20"/>
</svg>
