<svg width="32" height="32" viewBox="0 0 32 32" fill="none" xmlns="http://www.w3.org/2000/svg">
<rect width="32" height="32" rx="16" fill="#262F63"/>
<path fill-rule="evenodd" clip-rule="evenodd" d="M16 5.2498C14.172 5.2498 12.661 5.4108 11.498 5.6068L11.364 5.6298C10.354 5.7988 9.514 5.9398 8.857 6.7478C8.437 7.2668 8.3 7.8278 8.269 8.4528L7.777 8.6168C7.314 8.7708 6.907 8.9068 6.586 9.0568C6.238 9.2188 5.919 9.4268 5.675 9.7658C5.431 10.1048 5.334 10.4728 5.29 10.8538C5.25 11.2068 5.25 11.6338 5.25 12.1228V12.2678C5.25 12.6698 5.25 13.0248 5.28 13.3218C5.312 13.6428 5.383 13.9558 5.56 14.2578C5.739 14.5608 5.977 14.7748 6.243 14.9588C6.488 15.1288 6.798 15.3018 7.15 15.4968L9.79 16.9638C10.33 18.0248 11.071 18.9708 12.09 19.6538C12.977 20.2498 14.042 20.6238 15.303 20.7228C15.2691 20.8113 15.2511 20.9051 15.25 20.9998V22.7498H13.82C13.4154 22.7498 13.0233 22.89 12.7105 23.1465C12.3976 23.4031 12.1833 23.7601 12.104 24.1568L11.885 25.2498H10C9.80109 25.2498 9.61032 25.3288 9.46967 25.4695C9.32902 25.6101 9.25 25.8009 9.25 25.9998C9.25 26.1987 9.32902 26.3895 9.46967 26.5301C9.61032 26.6708 9.80109 26.7498 10 26.7498H22C22.1989 26.7498 22.3897 26.6708 22.5303 26.5301C22.671 26.3895 22.75 26.1987 22.75 25.9998C22.75 25.8009 22.671 25.6101 22.5303 25.4695C22.3897 25.3288 22.1989 25.2498 22 25.2498H20.115L19.896 24.1568C19.8167 23.7601 19.6024 23.4031 19.2895 23.1465C18.9767 22.89 18.5846 22.7498 18.18 22.7498H16.75V20.9998C16.7489 20.9051 16.7309 20.8113 16.697 20.7228C17.958 20.6228 19.023 20.2498 19.91 19.6548C20.93 18.9708 21.67 18.0248 22.21 16.9638L24.85 15.4968C25.202 15.3018 25.512 15.1288 25.757 14.9588C26.022 14.7748 26.261 14.5608 26.439 14.2588C26.617 13.9558 26.689 13.6428 26.72 13.3218C26.75 13.0248 26.75 12.6698 26.75 12.2678V12.1228C26.75 11.6348 26.75 11.2068 26.71 10.8538C26.666 10.4728 26.57 10.1038 26.325 9.7658C26.081 9.4268 25.762 9.2188 25.415 9.0558C25.092 8.9058 24.686 8.7708 24.223 8.6168L23.731 8.4528C23.701 7.8268 23.564 7.2668 23.143 6.7478C22.487 5.9388 21.647 5.7978 20.637 5.6298L20.502 5.6068C19.0139 5.36228 17.508 5.24286 16 5.2498ZM18.585 25.2498L18.425 24.4508C18.4137 24.3941 18.3831 24.3432 18.3384 24.3065C18.2938 24.2699 18.2378 24.2498 18.18 24.2498H13.82C13.7622 24.2498 13.7062 24.2699 13.6616 24.3065C13.6169 24.3432 13.5863 24.3941 13.575 24.4508L13.415 25.2498H18.585ZM8.288 10.0278L8.302 10.0228C8.374 11.5428 8.545 13.2228 8.973 14.7928L7.907 14.2018C7.518 13.9848 7.274 13.8488 7.098 13.7268C6.936 13.6138 6.883 13.5468 6.854 13.4968C6.824 13.4468 6.792 13.3688 6.772 13.1728C6.75133 12.8606 6.74399 12.5476 6.75 12.2348V12.1618C6.75 11.6228 6.751 11.2818 6.78 11.0238C6.808 10.7858 6.852 10.6968 6.892 10.6428C6.931 10.5878 7.001 10.5178 7.218 10.4168C7.454 10.3068 7.778 10.1988 8.288 10.0278ZM23.698 10.0218C23.627 11.5418 23.455 13.2218 23.028 14.7918L24.093 14.2008C24.482 13.9838 24.726 13.8478 24.902 13.7258C25.064 13.6128 25.117 13.5458 25.146 13.4958C25.176 13.4458 25.208 13.3678 25.228 13.1718C25.249 12.9578 25.25 12.6788 25.25 12.2338V12.1608C25.25 11.6218 25.249 11.2808 25.22 11.0228C25.192 10.7848 25.148 10.6958 25.108 10.6418C25.069 10.5868 24.999 10.5168 24.782 10.4158C24.546 10.3058 24.222 10.1968 23.712 10.0258L23.698 10.0218ZM11.748 7.0858C13.1535 6.85571 14.5758 6.74332 16 6.7498C17.74 6.7498 19.167 6.9028 20.252 7.0858C21.459 7.2898 21.712 7.3658 21.979 7.6938C22.241 8.0158 22.266 8.3218 22.212 9.6768C22.122 11.9348 21.824 14.3728 20.902 16.2268C20.446 17.1408 19.85 17.8888 19.075 18.4088C18.304 18.9258 17.309 19.2498 16 19.2498C14.691 19.2498 13.697 18.9258 12.926 18.4088C12.15 17.8888 11.554 17.1408 11.099 16.2258C10.176 14.3728 9.879 11.9358 9.789 9.6758C9.735 8.3218 9.759 8.0158 10.022 7.6938C10.288 7.3658 10.541 7.2898 11.748 7.0858Z" fill="white"/>
</svg>
