<svg width="18" height="18" viewBox="0 0 18 18" fill="none" xmlns="http://www.w3.org/2000/svg">
<path d="M9 12C9.55 12 10 12.45 10 13V14H17C17.55 14 18 14.45 18 15C18 15.55 17.55 16 17 16H10V17C10 17.55 9.55 18 9 18C8.45009 17.9999 8 17.5499 8 17V13C8 12.4501 8.45009 12.0001 9 12ZM6 14V16H1C0.450093 15.9999 0 15.5499 0 15C3.25013e-08 14.4501 0.450093 14.0001 1 14H6ZM5 6C5.55 6 6 6.45 6 7V11C6 11.55 5.55 12 5 12C4.45009 11.9999 4 11.5499 4 11V10H1C0.450093 9.99989 0 9.54993 0 9C3.25013e-08 8.45007 0.450093 8.00011 1 8H4V7C4 6.45007 4.45009 6.00011 5 6ZM17 8C17.55 8 18 8.45 18 9C18 9.55 17.55 10 17 10H8V8H17ZM13 0C13.55 0 14 0.45 14 1V2H17C17.55 2 18 2.45 18 3C18 3.55 17.55 4 17 4H14V5C14 5.55 13.55 6 13 6C12.4501 5.99989 12 5.54993 12 5V1C12 0.450068 12.4501 0.000111108 13 0ZM10 2V4H1C0.450093 3.99989 0 3.54993 0 3C1.95008e-07 2.45007 0.450093 2.00011 1 2H10Z" fill="#262F63"/>
</svg>
