<svg width="24" height="24" viewBox="0 0 24 24" fill="none" xmlns="http://www.w3.org/2000/svg">
<path d="M22.8682 18.3476C22.8464 18.0821 22.7682 17.8242 22.6389 17.5913C22.5095 17.3583 22.332 17.1556 22.1182 16.9967L19.031 14.547L20.1654 13.4126C20.6442 12.938 20.9983 12.3525 21.1964 11.7081C21.3945 11.0638 21.4303 10.3804 21.3007 9.71886C20.8475 7.4905 19.6261 5.49206 17.8498 4.07229C16.0481 2.62299 13.7981 1.84603 11.486 1.87479C8.9503 1.91748 6.53036 2.94379 4.73707 4.73708C2.94378 6.53037 1.91747 8.95031 1.87478 11.486C1.84625 13.7971 2.62285 16.046 4.07134 17.847C5.49111 19.6233 7.48955 20.8447 9.71791 21.2979C10.3793 21.4275 11.0625 21.3917 11.7068 21.1936C12.351 20.9955 12.9363 20.6414 13.4107 20.1626L14.547 19.031L16.9967 22.1201C17.1556 22.3339 17.3583 22.5114 17.5913 22.6407C17.8242 22.7701 18.0821 22.8483 18.3476 22.8701C18.3992 22.8701 18.4507 22.8767 18.5032 22.8767C19.0001 22.8763 19.4766 22.6787 19.8279 22.3273L22.3254 19.8298C22.5185 19.6373 22.6672 19.4048 22.7609 19.1488C22.8547 18.8928 22.8913 18.6193 22.8682 18.3476ZM4.12478 11.5179C4.18103 7.49979 7.49978 4.18104 11.5179 4.12479C12.6911 4.11014 13.852 4.36447 14.9116 4.86826C15.9712 5.37205 16.9012 6.11191 17.6304 7.03104L7.03103 17.6304C6.11189 16.9012 5.37204 15.9712 4.86825 14.9116C4.36446 13.852 4.11013 12.6911 4.12478 11.5179ZM18.5351 20.4373L15.5257 16.6414C15.4271 16.5173 15.3033 16.4156 15.1626 16.3427C15.0219 16.2699 14.8674 16.2275 14.7092 16.2185H14.6445C14.4967 16.2184 14.3503 16.2474 14.2138 16.3039C14.0772 16.3604 13.9531 16.4432 13.8485 16.5476L11.8207 18.5717C11.6075 18.7884 11.344 18.9492 11.0537 19.0398C10.7635 19.1304 10.4554 19.148 10.1567 19.091C9.78394 19.0163 9.41778 18.9119 9.06166 18.7789L18.7788 9.06167C18.9118 9.41779 19.0162 9.78395 19.091 10.1567C19.148 10.4554 19.1304 10.7635 19.0398 11.0538C18.9492 11.344 18.7884 11.6075 18.5717 11.8207L16.5438 13.8485C16.4315 13.9605 16.3441 14.095 16.2874 14.2432C16.2307 14.3913 16.2059 14.5498 16.2148 14.7082C16.2236 14.8665 16.2659 15.0213 16.3387 15.1622C16.4116 15.3031 16.5135 15.427 16.6376 15.5257L20.4373 18.5351L18.5351 20.4373Z" fill="black"/>
</svg>
