<svg width="23" height="20" viewBox="0 0 23 20" fill="none" xmlns="http://www.w3.org/2000/svg">
<path d="M10.7354 15.6945C10.8402 15.799 10.9235 15.9232 10.9802 16.06C11.037 16.1967 11.0662 16.3433 11.0662 16.4914C11.0662 16.6394 11.037 16.7861 10.9802 16.9228C10.9235 17.0595 10.8402 17.1837 10.7354 17.2883L10.2554 17.7683C9.74583 18.2797 9.13996 18.685 8.4728 18.9608C7.80563 19.2366 7.09041 19.3775 6.36848 19.3751C5.2813 19.3755 4.21843 19.0534 3.31436 18.4495C2.41028 17.8457 1.70562 16.9872 1.28952 15.9828C0.873428 14.9784 0.764594 13.8732 0.97679 12.8069C1.18899 11.7406 1.71268 10.7612 2.48161 9.99263L5.73942 6.73482C6.43236 6.04198 7.29789 5.54695 8.2464 5.30096C9.19492 5.05498 10.1919 5.06698 11.1343 5.33574C12.0766 5.60449 12.9299 6.12023 13.606 6.82955C14.282 7.53887 14.7562 8.416 14.9794 9.37013C15.0164 9.5152 15.024 9.66619 15.0019 9.81425C14.9798 9.96232 14.9283 10.1045 14.8505 10.2324C14.7728 10.3603 14.6702 10.4714 14.549 10.5592C14.4277 10.647 14.2901 10.7097 14.1443 10.7436C13.9985 10.7776 13.8474 10.7821 13.6998 10.7569C13.5523 10.7317 13.4112 10.6772 13.2849 10.5968C13.1587 10.5164 13.0497 10.4116 12.9645 10.2885C12.8792 10.1655 12.8194 10.0266 12.7885 9.88013C12.656 9.31691 12.3756 8.79928 11.976 8.38077C11.5765 7.96225 11.0725 7.65803 10.516 7.49956C9.95957 7.34109 9.37088 7.33412 8.81083 7.47937C8.25077 7.62462 7.73967 7.91682 7.33036 8.32575L4.07255 11.5836C3.61843 12.0373 3.30907 12.6155 3.18359 13.2451C3.05812 13.8747 3.12216 14.5273 3.36762 15.1205C3.61308 15.7137 4.02893 16.2207 4.56258 16.5776C5.09623 16.9344 5.72372 17.1249 6.36567 17.1251C6.79221 17.1263 7.21475 17.0429 7.60885 16.8798C8.00294 16.7166 8.36076 16.4769 8.66161 16.1745L9.14067 15.6945C9.24521 15.5895 9.36946 15.5061 9.50629 15.4493C9.64312 15.3924 9.78984 15.3631 9.93802 15.3631C10.0862 15.3631 10.2329 15.3924 10.3697 15.4493C10.5066 15.5061 10.6308 15.5895 10.7354 15.6945ZM21.015 2.23482C19.9839 1.20405 18.5857 0.625 17.1277 0.625C15.6697 0.625 14.2715 1.20405 13.2404 2.23482L12.7613 2.71388C12.55 2.92522 12.4312 3.21187 12.4312 3.51075C12.4312 3.80964 12.55 4.09628 12.7613 4.30763C12.9726 4.51897 13.2593 4.6377 13.5582 4.6377C13.8571 4.6377 14.1437 4.51897 14.355 4.30763L14.835 3.82763C15.4442 3.21846 16.2704 2.87623 17.1319 2.87623C17.9934 2.87623 18.8196 3.21846 19.4288 3.82763C20.038 4.4368 20.3802 5.26301 20.3802 6.1245C20.3802 6.986 20.038 7.81221 19.4288 8.42138L16.1654 11.6745C15.8646 11.977 15.5068 12.2167 15.1127 12.3799C14.7185 12.5431 14.296 12.6264 13.8694 12.6251C13.1377 12.6246 12.4276 12.3769 11.8543 11.9222C11.281 11.4675 10.8781 10.8325 10.711 10.1201C10.6434 9.82947 10.463 9.57758 10.2097 9.41987C9.95633 9.26217 9.65071 9.21156 9.36005 9.27919C9.06939 9.34682 8.8175 9.52715 8.65979 9.78049C8.50208 10.0338 8.45148 10.3395 8.51911 10.6301C8.8014 11.8366 9.48296 12.9123 10.4533 13.6828C11.4236 14.4533 12.6257 14.8735 13.8647 14.8751H13.8694C14.5917 14.8771 15.3072 14.7359 15.9745 14.4596C16.6418 14.1833 17.2478 13.7774 17.7572 13.2654L21.015 10.0076C21.5255 9.4973 21.9304 8.89141 22.2067 8.22458C22.4829 7.55774 22.6251 6.84302 22.6251 6.12122C22.6251 5.39943 22.4829 4.6847 22.2067 4.01787C21.9304 3.35103 21.5255 2.74515 21.015 2.23482Z" fill="#262F63"/>
</svg>
