<svg width="20" height="16" viewBox="0 0 20 16" fill="none" xmlns="http://www.w3.org/2000/svg">
<path d="M5.875 2C5.875 1.70163 5.99353 1.41548 6.2045 1.2045C6.41548 0.993526 6.70163 0.875 7 0.875H18.25C18.5484 0.875 18.8345 0.993526 19.0455 1.2045C19.2565 1.41548 19.375 1.70163 19.375 2C19.375 2.29837 19.2565 2.58452 19.0455 2.7955C18.8345 3.00647 18.5484 3.125 18.25 3.125H7C6.70163 3.125 6.41548 3.00647 6.2045 2.7955C5.99353 2.58452 5.875 2.29837 5.875 2ZM18.25 6.875H7C6.70163 6.875 6.41548 6.99353 6.2045 7.2045C5.99353 7.41548 5.875 7.70163 5.875 8C5.875 8.29837 5.99353 8.58452 6.2045 8.79549C6.41548 9.00647 6.70163 9.125 7 9.125H18.25C18.5484 9.125 18.8345 9.00647 19.0455 8.79549C19.2565 8.58452 19.375 8.29837 19.375 8C19.375 7.70163 19.2565 7.41548 19.0455 7.2045C18.8345 6.99353 18.5484 6.875 18.25 6.875ZM18.25 12.875H7C6.70163 12.875 6.41548 12.9935 6.2045 13.2045C5.99353 13.4155 5.875 13.7016 5.875 14C5.875 14.2984 5.99353 14.5845 6.2045 14.7955C6.41548 15.0065 6.70163 15.125 7 15.125H18.25C18.5484 15.125 18.8345 15.0065 19.0455 14.7955C19.2565 14.5845 19.375 14.2984 19.375 14C19.375 13.7016 19.2565 13.4155 19.0455 13.2045C18.8345 12.9935 18.5484 12.875 18.25 12.875ZM3.25 0.875H1.75C1.45163 0.875 1.16548 0.993526 0.954505 1.2045C0.743526 1.41548 0.625 1.70163 0.625 2C0.625 2.29837 0.743526 2.58452 0.954505 2.7955C1.16548 3.00647 1.45163 3.125 1.75 3.125H3.25C3.54837 3.125 3.83452 3.00647 4.0455 2.7955C4.25647 2.58452 4.375 2.29837 4.375 2C4.375 1.70163 4.25647 1.41548 4.0455 1.2045C3.83452 0.993526 3.54837 0.875 3.25 0.875ZM3.25 6.875H1.75C1.45163 6.875 1.16548 6.99353 0.954505 7.2045C0.743526 7.41548 0.625 7.70163 0.625 8C0.625 8.29837 0.743526 8.58452 0.954505 8.79549C1.16548 9.00647 1.45163 9.125 1.75 9.125H3.25C3.54837 9.125 3.83452 9.00647 4.0455 8.79549C4.25647 8.58452 4.375 8.29837 4.375 8C4.375 7.70163 4.25647 7.41548 4.0455 7.2045C3.83452 6.99353 3.54837 6.875 3.25 6.875ZM3.25 12.875H1.75C1.45163 12.875 1.16548 12.9935 0.954505 13.2045C0.743526 13.4155 0.625 13.7016 0.625 14C0.625 14.2984 0.743526 14.5845 0.954505 14.7955C1.16548 15.0065 1.45163 15.125 1.75 15.125H3.25C3.54837 15.125 3.83452 15.0065 4.0455 14.7955C4.25647 14.5845 4.375 14.2984 4.375 14C4.375 13.7016 4.25647 13.4155 4.0455 13.2045C3.83452 12.9935 3.54837 12.875 3.25 12.875Z" fill="#262F63"/>
</svg>
