<svg width="43" height="53" viewBox="0 0 43 53" fill="none" xmlns="http://www.w3.org/2000/svg">
<path d="M21.25 15.25C19.6587 15.25 18.133 15.8826 17.0078 17.0078C15.8826 18.133 15.25 19.6587 15.25 21.25C15.25 22.4365 15.6017 23.5964 16.2607 24.583C16.92 25.5697 17.8577 26.3388 18.9541 26.793C20.0504 27.2471 21.257 27.3663 22.4209 27.1348C23.5847 26.9032 24.6532 26.3312 25.4922 25.4922C26.3312 24.6532 26.9032 23.5847 27.1348 22.4209C27.3663 21.257 27.2471 20.0504 26.793 18.9541C26.3388 17.8577 25.5697 16.92 24.583 16.2607C23.5964 15.6017 22.4365 15.25 21.25 15.25ZM41.5 21.25C41.5 29.8348 36.9481 37.2898 32.417 42.5977C27.877 47.9158 23.2447 51.2094 22.8271 51.501C22.3648 51.8249 21.8145 52 21.25 52C20.6854 52 20.1343 51.8259 19.6719 51.502V51.501C19.2501 51.2064 14.6207 47.913 10.083 42.5977C5.55188 37.2898 1 29.8348 1 21.25V21.249L1.00684 20.7461C1.14125 15.5599 3.26009 10.6149 6.9375 6.9375C10.7336 3.14142 15.8806 1.00609 21.249 1H21.251L21.7539 1.00684C26.9401 1.14125 31.8851 3.26009 35.5625 6.9375C39.3586 10.7336 41.4939 15.8806 41.5 21.249V21.25Z" fill="#262F63" stroke="white" stroke-width="2"/>
</svg>
