<svg width="22" height="22" viewBox="0 0 22 22" fill="none" xmlns="http://www.w3.org/2000/svg">
<path d="M19.2927 3.79979L20.7502 2.19599C20.9807 1.93615 21.0995 1.59593 21.0809 1.24909C21.0622 0.902247 20.9076 0.576737 20.6505 0.343131C20.3935 0.109525 20.0547 -0.0133479 19.7077 0.00115177C19.3606 0.0156514 19.0333 0.166355 18.7966 0.420589L17.3402 2.02219C15.148 0.475947 12.4663 -0.215886 9.79964 0.0768563C7.133 0.369598 4.66525 1.62673 2.86069 3.61174C1.05612 5.59674 0.039151 8.17278 0.0011072 10.8552C-0.0369366 13.5376 0.90657 16.1414 2.65411 18.1768L1.19661 19.7806C1.07759 19.9084 0.985132 20.0586 0.92459 20.2225C0.864047 20.3863 0.836627 20.5606 0.843919 20.7351C0.851211 20.9096 0.893069 21.081 0.967068 21.2392C1.04107 21.3974 1.14573 21.5394 1.275 21.6569C1.40427 21.7743 1.55558 21.865 1.72014 21.9236C1.8847 21.9821 2.05926 22.0075 2.23368 21.9981C2.4081 21.9887 2.57893 21.9448 2.73626 21.8689C2.89359 21.793 3.03429 21.6867 3.15021 21.556L4.60661 19.9544C6.79883 21.5006 9.48054 22.1925 12.1472 21.8997C14.8138 21.607 17.2816 20.3498 19.0861 18.3648C20.8907 16.3798 21.9077 13.8038 21.9457 11.1214C21.9838 8.43901 21.0403 5.83517 19.2927 3.79979ZM2.61341 10.9883C2.61214 9.48114 3.01864 8.00173 3.78984 6.70684C4.56104 5.41195 5.6682 4.34983 6.99399 3.63304C8.31977 2.91625 9.81478 2.5715 11.3206 2.63533C12.8264 2.69915 14.2868 3.16918 15.5472 3.99559L4.44711 16.2056C3.25859 14.7266 2.61156 12.8857 2.61341 10.9883ZM10.9734 19.3483C9.34787 19.3498 7.7576 18.8744 6.39961 17.981L17.4997 5.77099C18.4845 6.99984 19.1019 8.48204 19.2807 10.0466C19.4594 11.6112 19.1923 13.1945 18.5101 14.6138C17.8278 16.0331 16.7583 17.2307 15.4248 18.0684C14.0913 18.9061 12.5482 19.3498 10.9734 19.3483Z" fill="#89867E"/>
</svg>
