<svg width="175" height="100" viewBox="0 0 175 100" fill="none" xmlns="http://www.w3.org/2000/svg">
<path d="M160.58 20.673C161.694 18.8226 162.756 17.062 163.902 15.1732C161.822 15.1732 159.92 15.1732 158.019 15.1732C157.872 15.1673 157.727 15.2056 157.603 15.2833C157.478 15.3609 157.38 15.4743 157.321 15.6086C156.61 16.7546 155.874 17.8879 155.176 19.0403C154.984 19.3926 154.723 19.7025 154.408 19.9511C154.094 20.1998 153.732 20.3822 153.345 20.4873C151.843 20.9255 150.53 21.8513 149.612 23.1187L143.626 30.6288C141.327 33.5035 139.023 36.391 136.173 38.7343C134.374 40.2197 132.415 41.2953 129.976 41.1608C127.985 41.052 127.037 39.9764 127.172 37.9916C127.368 36.2009 127.9 34.4632 128.74 32.8696C128.807 32.6703 128.938 32.499 129.113 32.3829C129.288 32.2669 129.497 32.2129 129.707 32.2294C131.711 32.159 133.715 32.1077 135.712 31.9221C138.369 31.666 140.783 30.7568 142.602 28.7208C145.387 25.5772 144.01 21.3004 139.919 20.3976C137.249 19.8022 134.707 20.3528 132.236 21.4284C128.907 22.9962 125.951 25.2578 123.567 28.0614C120.475 31.4739 117.805 35.2257 114.872 38.7791C114.329 39.5285 113.711 40.2213 113.029 40.8471C112.329 41.4892 111.417 41.8495 110.468 41.8587C110.476 41.7907 110.494 41.724 110.519 41.6602C111.569 39.9892 112.612 38.3245 113.669 36.6535C114.169 35.9093 114.574 35.1047 114.872 34.259C115.73 31.6084 114.54 29.726 111.786 29.3931C111.197 29.3227 110.602 29.2843 110.013 29.2266C110.566 28.9249 111.15 28.6824 111.754 28.5032C114.088 27.798 116.333 26.827 118.445 25.6092C119.163 25.1967 119.785 24.6358 120.27 23.9638C121.32 22.3824 120.526 20.7626 118.624 20.6922C117.773 20.6473 116.921 20.6922 116.063 20.6922C115.899 20.6734 115.732 20.705 115.586 20.7827C115.44 20.8604 115.32 20.9806 115.244 21.1275C114.604 22.2159 113.906 23.2916 113.227 24.3672C112.378 25.7338 111.131 26.8083 109.654 27.4468C107.536 28.33 105.465 29.3238 103.45 30.4239L102.375 31.0193L102.272 30.9169L114.725 10.9284C112.74 10.9284 110.884 10.9284 109.091 10.9284C108.91 10.9117 108.729 10.9506 108.571 11.0398C108.413 11.1291 108.286 11.2644 108.208 11.4278C106.588 13.9888 104.949 16.5498 103.335 19.1556C102.963 19.8141 102.354 20.3063 101.632 20.5321C100.286 20.9531 99.1056 21.7862 98.2581 22.9138C95.3258 26.5888 92.4126 30.283 89.4483 33.926C87.7541 36.1521 85.7211 38.0986 83.4236 39.6947C81.8786 40.7897 79.9968 41.3044 78.1096 41.148C77.7792 41.1448 77.4528 41.0755 77.1497 40.9443C76.8465 40.8131 76.5726 40.6226 76.3441 40.384C76.1156 40.1454 75.9372 39.8635 75.8193 39.5549C75.7013 39.2463 75.6463 38.9172 75.6574 38.587C75.6375 37.8352 75.7281 37.0845 75.9263 36.359C76.8547 32.9529 78.7178 30.0397 80.805 27.2547C82.0148 25.5218 83.4805 23.9827 85.1523 22.6897C85.6445 22.3022 86.2216 22.0368 86.8361 21.915C87.6428 21.7998 88.027 22.1647 87.9629 22.9714C87.8971 23.5672 87.7189 24.1451 87.4379 24.6745C86.7857 25.9162 85.9432 27.0482 84.941 28.0294C84.7617 28.2086 84.4672 28.3687 84.941 28.5928C86.1722 29.2352 87.5788 29.4599 88.9489 29.233C90.5687 28.9257 91.83 28.0934 92.3358 26.4224C92.6725 25.2802 92.5581 24.0524 92.016 22.9921C91.474 21.9319 90.5457 21.1201 89.4227 20.7242C87.5374 20.0393 85.486 19.9565 83.5516 20.4873C79.819 21.326 76.8355 23.4644 74.076 25.987C71.9717 28.0239 70.0301 30.2224 68.269 32.5623C67.6895 33.3543 66.8699 33.9381 65.9321 34.227L66.2586 33.5867C67.3758 31.6681 68.1473 29.5682 68.5379 27.3827C69.0629 24.0535 67.411 21.3132 64.2738 20.4489C63.2552 20.1814 62.2009 20.0755 61.1494 20.1351C57.9493 20.2703 54.8873 21.4766 52.4549 23.5605C48.3957 26.9089 45.5851 31.0513 44.6183 36.2886C43.9781 39.9059 46.0653 42.9343 49.5994 43.4657C52.218 43.8608 54.8949 43.4593 57.2824 42.3133C60.0015 40.9591 62.382 39.0118 64.2482 36.6151C64.4211 36.4102 64.5299 36.1477 64.8885 36.1349C67.251 36.0517 68.9668 34.784 70.4202 33.0745C71.3037 32.0245 72.1425 30.9233 72.9812 29.8733C73.122 29.694 73.2309 29.4763 73.4678 29.4187C73.5842 29.3801 73.7099 29.3801 73.8263 29.4187C73.9544 29.5019 73.8647 29.6364 73.8263 29.7388C73.7879 29.8413 73.6406 30.0398 73.551 30.187C72.2705 32.3446 70.99 34.5151 70.6571 37.0953C70.396 38.4887 70.6963 39.929 71.4927 41.1019C72.2891 42.2748 73.5168 43.0854 74.9083 43.3569C76.5568 43.7243 78.2643 43.7397 79.9192 43.4021C81.5741 43.0645 83.1391 42.3815 84.512 41.3977C87.4059 39.477 89.634 36.852 91.798 34.1885C94.6791 30.6416 97.509 27.0434 100.377 23.4772C100.614 23.1891 100.928 22.6129 101.28 22.837C101.632 23.0611 101.216 23.5925 101.011 23.919C97.2081 29.9971 93.4008 36.0666 89.5892 42.1276C89.3509 42.3915 89.1873 42.7142 89.1154 43.0624C90.9913 43.0624 92.8416 43.0624 94.6919 43.0624C94.8855 43.0783 95.0794 43.0347 95.2476 42.9374C95.4158 42.8402 95.5503 42.6939 95.6331 42.5181C96.9904 40.3029 98.4181 38.1325 99.7371 35.898C101.248 33.337 103.579 31.9221 106.287 30.9553C107.037 30.6508 107.871 30.6191 108.643 30.8657C108.909 30.9447 109.142 31.1079 109.307 31.3307C109.472 31.5536 109.56 31.824 109.558 32.1013C109.571 32.6778 109.42 33.2461 109.123 33.7404C108.604 34.6495 108.047 35.5395 107.497 36.4294C106.993 37.1602 106.585 37.9519 106.28 38.7855C105.525 41.2761 106.69 43.2032 109.264 43.5745C110.208 43.7206 111.172 43.6582 112.089 43.3916C113.006 43.1251 113.853 42.6608 114.572 42.0316C115.948 40.8727 116.934 39.3873 118.048 38.0044C120.193 35.3346 122.299 32.6327 124.451 29.9501C124.886 29.3931 124.892 29.3931 125.475 29.5404L125.04 30.2382C123.823 32.2486 122.658 34.2718 122.229 36.6407C121.633 39.9123 123.253 42.6078 126.358 43.3441C128.39 43.8329 130.517 43.7509 132.505 43.1072C135.431 42.1724 137.71 40.2837 139.784 38.1197C142.448 35.3282 144.842 32.3126 147.25 29.3035C148.85 27.2846 150.466 25.2785 152.096 23.2852C152.333 23.0034 152.737 22.6449 153.044 22.8626C153.351 23.0803 153.044 23.5028 152.852 23.8358C151.217 26.4352 149.58 29.0324 147.941 31.6276C146.705 33.5931 145.425 35.5331 144.247 37.5306C142.627 40.2645 143.978 43.1264 147.115 43.5553C148.446 43.7668 149.809 43.627 151.069 43.1497C152.329 42.6724 153.442 41.8743 154.299 40.8343C155.725 39.0654 157.04 37.2093 158.236 35.277C158.236 35.277 158.236 35.1873 158.185 35.1169C157.789 35.1425 157.391 35.1425 156.994 35.1169C156.645 35.0522 156.284 35.1043 155.967 35.2651C155.65 35.4259 155.394 35.6866 155.24 36.0068C154.466 37.2917 153.593 38.5141 152.628 39.6626C152.056 40.3856 151.321 40.9623 150.483 41.3453C149.645 41.7282 148.727 41.9064 147.807 41.8651C147.839 41.7524 147.882 41.643 147.935 41.5386C151.648 35.4093 155.362 29.2843 159.075 23.1635C159.148 23.0358 159.258 22.9335 159.391 22.8705C159.524 22.8075 159.673 22.7869 159.818 22.8114C160.893 22.8114 161.969 22.8114 163.019 22.8114C163.224 22.8114 163.474 22.9074 163.659 22.6577L164.869 20.6794L160.58 20.673ZM132.185 27.3763C133.389 25.708 134.802 24.2017 136.391 22.8946C136.926 22.4413 137.553 22.1093 138.229 21.9214C139.195 21.6845 139.676 22.1711 139.509 23.1443C139.409 23.6838 139.225 24.2044 138.965 24.6873C137.883 26.7308 136.268 28.4432 134.291 29.6428C133.027 30.411 131.537 30.7207 130.072 30.5199C130.702 29.4239 131.408 28.3735 132.185 27.3763ZM62.1418 29.2971C60.3128 33.1434 57.8057 36.6287 54.7406 39.5858C53.9606 40.4011 53.0063 41.0292 51.9491 41.4233C50.2076 41.9867 49.2409 41.1992 49.3881 39.413C49.6741 37.36 50.3592 35.3828 51.4049 33.5931C53.1991 30.0624 55.5806 26.8625 58.4476 24.1303C59.2842 23.2611 60.3287 22.6198 61.4824 22.2672C62.8781 21.915 63.7552 22.6257 63.7296 23.4004C63.6507 25.4604 63.108 27.476 62.1418 29.2971Z" fill="#E8E8E8"/>
<path d="M41.462 38.6129L40.8218 38.9203L39.9126 39.3428L38.901 39.8102L37.9407 40.2584L37.1724 40.6105C37.0315 40.6809 36.8907 40.7578 36.7434 40.8154C36.3977 40.9498 36.5449 40.2968 36.5833 39.9831L36.641 39.5349C37.0763 36.577 37.5245 33.6126 37.9215 30.6483C38.1455 29.0157 38.1263 29.0541 39.7141 28.6443C43.1074 27.7608 45.9565 26.0833 47.6148 22.8501C49.2154 19.7385 48.5303 16.1979 45.9757 14.2708C44.1447 12.9784 41.9485 12.3054 39.7077 12.3501C36.9995 12.2732 34.2913 12.3501 31.5894 12.3501C31.3973 12.3501 31.1605 12.254 31.0324 12.4589C30.6227 13.0992 30.2385 13.7394 29.8095 14.4245C31.5382 14.4949 31.6022 14.6293 30.7379 16.0251C30.7379 16.0699 30.6931 16.1147 30.6611 16.1595C27.8952 20.5772 25.1208 24.9971 22.3379 29.419C20.2037 32.8038 18.0866 36.1907 15.9866 39.5797C15.4104 40.5145 14.7061 41.1867 13.5153 41.0395C13.4063 41.0091 13.2904 41.0152 13.1852 41.0568C13.08 41.0984 12.9913 41.1733 12.9327 41.27C12.5805 41.859 12.2092 42.4416 11.8442 43.0306C11.9531 43.0883 11.9915 43.1267 12.0299 43.1267H22.3315C22.5043 43.1267 22.6836 43.1267 22.7988 42.9666L24.0153 41.0459H22.5107C21.9857 41.0459 21.8705 40.7194 21.9985 40.284C22.0676 40.0712 22.1691 39.8703 22.2995 39.6886C24.3995 36.2782 26.5037 32.8913 28.6123 29.5279C28.7403 29.323 28.8364 29.0989 29.1629 29.1053C30.3089 29.1053 31.4614 29.1053 32.6458 29.1053C32.3001 31.2309 31.9608 33.2925 31.6342 35.3605C31.3077 37.4285 30.994 39.5477 30.6611 41.6477C30.5074 42.6785 30.8019 43.0563 31.8327 43.0691C32.8635 43.0819 36.4809 43.0691 36.6666 43.0691C37.7358 42.9986 42.5696 40.3224 42.5696 40.3224L41.7181 38.4785L41.462 38.6129ZM33.3757 26.89C32.3961 26.89 31.423 26.89 30.2705 26.89C31.3269 25.1998 32.3001 23.6376 33.2797 22.0818C34.7586 19.7129 36.2632 17.3568 37.7166 14.9687C37.8087 14.7686 37.9636 14.6041 38.1577 14.5001C38.3518 14.3961 38.5746 14.3583 38.7922 14.3924C39.416 14.3799 40.0397 14.4249 40.6553 14.5269C41.2904 14.6394 41.8647 14.9744 42.2754 15.4718C42.686 15.9692 42.906 16.5966 42.8962 17.2415C42.9922 20.6669 41.3148 23.1894 38.6897 25.1806C37.1712 26.3513 35.292 26.9559 33.3757 26.89Z" fill="#E8E8E8"/>
<path d="M135.207 78.0452C134.477 79.1849 133.69 80.2861 132.89 81.3681C132.218 82.3429 131.316 83.1368 130.265 83.6794C129.512 84.0963 128.645 84.258 127.793 84.1404C134.087 73.826 140.336 63.5885 146.636 53.2549C144.715 53.2549 142.941 53.2549 141.162 53.2549C140.944 53.2322 140.725 53.2756 140.534 53.3796C140.342 53.4836 140.186 53.6432 140.086 53.8375C138.492 56.3985 136.853 58.9595 135.252 61.5205C134.901 62.1656 134.313 62.6498 133.613 62.8714C132.148 63.3347 130.872 64.2602 129.976 65.5092C127.975 68.0403 125.964 70.565 123.945 73.0833C121.711 75.8876 119.464 78.6727 116.698 80.9904C114.899 82.4949 112.933 83.6154 110.462 83.5001C108.362 83.3977 107.395 82.2645 107.6 80.1644C107.839 78.3744 108.392 76.6406 109.232 75.0425C109.305 74.8863 109.426 74.757 109.576 74.6731C109.727 74.5892 109.9 74.5549 110.071 74.5751C112.094 74.4919 114.13 74.4534 116.147 74.2614C118.755 74.1187 121.207 72.9741 122.991 71.0666C125.828 67.9165 124.464 63.6013 120.334 62.6729C117.581 62.0327 114.956 62.6729 112.459 63.7998C108.618 65.5604 105.583 68.3455 102.92 71.5403C100.051 74.9785 97.2983 78.5126 94.5004 82.0084C93.9499 82.7567 93.2361 83.3698 92.4132 83.801C91.9268 84.0867 91.3596 84.2037 90.7998 84.134L110.122 53.2549C108.157 53.2549 106.351 53.2549 104.546 53.2549C104.318 53.233 104.088 53.2829 103.89 53.3977C103.691 53.5125 103.533 53.6864 103.438 53.8952C101.005 57.8263 98.5404 61.7382 96.0882 65.6501C95.9858 65.8037 95.9474 66.0662 95.6849 66.0342C95.4224 66.0022 95.5312 65.7589 95.5184 65.6117C95.5189 64.8242 95.2132 64.0674 94.6661 63.5012C94.1189 62.9349 93.3731 62.6035 92.5861 62.5769C89.8058 62.3188 87.0131 62.9176 84.583 64.2927C81.1205 66.182 78.0827 68.7621 75.658 71.8733C72.9818 75.1129 70.3952 78.4294 67.7702 81.7138C67.1692 82.5796 66.3815 83.2994 65.4653 83.8202C65.2264 83.9726 64.9596 84.076 64.6805 84.1243C64.4013 84.1727 64.1153 84.1651 63.8391 84.102L77.0281 63.0315C75.6708 63.0315 74.4671 63.0315 73.2251 63.0315C72.5207 62.9984 71.8199 63.1499 71.1921 63.4711C70.5643 63.7923 70.0314 64.272 69.6461 64.8626C69.4476 65.1507 69.2555 65.4452 69.0635 65.7333C68.9674 65.8742 68.9034 66.0918 68.6857 66.0278C68.468 65.9638 68.5705 65.7333 68.5577 65.5796C68.5265 64.8084 68.2122 64.0758 67.6747 63.5218C67.1373 62.9678 66.4145 62.6314 65.6446 62.5769C63.3678 62.2864 61.0572 62.7163 59.0372 63.8062C54.6195 66.1239 51.5655 69.7476 49.4335 74.2038C48.3003 76.5919 47.628 79.0504 48.089 81.7394C48.582 84.5757 50.7268 86.2788 53.4927 85.9715C54.8446 85.8441 56.1314 85.3307 57.1997 84.4925C57.84 83.9867 58.4802 83.4297 59.1205 82.8919C59.2549 82.7831 59.3701 82.623 59.575 82.6998C59.7799 82.7766 59.6839 82.9559 59.7031 83.0904C59.7032 83.7996 59.9733 84.4821 60.4585 84.9994C60.9437 85.5167 61.6075 85.8299 62.3153 85.8754C65.1644 86.3556 67.4372 85.2992 69.1979 83.1288C71.5412 80.2605 73.8141 77.3666 76.119 74.4406L78.0397 72.0397C78.2254 71.8028 78.4879 71.6044 78.7312 71.7964C78.9745 71.9885 78.6672 72.187 78.5647 72.3598C77.9245 73.4867 77.233 74.5879 76.644 75.7339C75.7005 77.3637 75.2097 79.2161 75.2226 81.0992C75.3059 83.8395 76.8617 85.709 79.3586 85.9587C80.8673 86.1086 82.3817 85.7357 83.6483 84.9023C84.468 84.3679 85.2336 83.7546 85.9339 83.0712C86.1068 82.9111 86.2413 82.6038 86.5294 82.7062C86.8175 82.8087 86.6638 83.1032 86.6894 83.3081C86.7494 83.9069 86.9992 84.4709 87.4023 84.9178C87.8054 85.3646 88.3408 85.671 88.9303 85.7922C89.3682 85.9012 89.8172 85.9592 90.2684 85.9651C92.9703 86.0739 94.9294 84.7422 96.5364 82.719L104.86 72.2638C105.097 71.9565 105.314 71.5531 105.91 71.8156C105.641 72.251 105.391 72.6223 105.167 73.0065C103.989 74.8053 103.135 76.7967 102.644 78.8904C102.004 82.3221 103.688 84.9983 107.062 85.7154C108.658 86.051 110.306 86.0502 111.901 85.7128C113.496 85.3755 115.003 84.7091 116.326 83.7562C118.887 82.0276 120.911 79.7291 122.902 77.4178C126.071 73.7364 128.984 69.8501 132.064 66.0918C132.377 65.7077 132.704 64.8626 133.248 65.2275C133.792 65.5924 133.024 66.1367 132.768 66.5464C130.104 70.8147 127.428 75.0638 124.739 79.2937C124.379 79.8316 124.086 80.4123 123.869 81.0224C123.068 83.4553 124.285 85.5041 126.801 85.8626C128.268 86.1136 129.777 85.9402 131.15 85.3629C132.522 84.7855 133.701 83.8283 134.548 82.6038C135.668 81.1376 136.68 79.5818 137.749 78.058C137.864 77.8852 138.082 77.7443 138.018 77.4178C137.499 77.4178 136.974 77.4562 136.462 77.4178C136.213 77.3719 135.956 77.4083 135.73 77.5215C135.503 77.6347 135.32 77.8185 135.207 78.0452ZM117.332 64.8562C117.772 64.5203 118.289 64.3002 118.836 64.2159C119.681 64.1135 120.065 64.504 119.925 65.3492C119.881 65.7197 119.784 66.082 119.636 66.4248C118.498 69.0023 116.49 71.0982 113.964 72.347C112.847 72.813 111.635 73.004 110.43 72.9041C112.376 69.7861 114.431 66.969 117.332 64.8562ZM57.7887 82.1428C57.0837 82.7847 56.2335 83.2461 55.311 83.4873C53.9281 83.8138 53.1085 83.18 53.1021 81.7843C53.1375 80.287 53.4956 78.8151 54.1521 77.469C55.9148 73.4235 58.4883 69.7824 61.7134 66.7705C62.4848 65.9778 63.439 65.3864 64.4921 65.0482C65.9199 64.6641 67.1235 65.0482 66.9699 66.7641C66.8736 68.3439 66.453 69.8869 65.7342 71.297C63.8834 75.4481 61.1655 79.1549 57.7631 82.1684L57.7887 82.1428ZM85.2617 81.7394C84.4813 82.5214 83.5237 83.1035 82.4702 83.4361C80.8312 83.8715 79.9092 83.116 80.0757 81.4321C80.2832 79.6696 80.8219 77.9622 81.6635 76.3998C83.487 72.5457 86.0824 69.107 89.2888 66.2967C90.0513 65.5614 91.0255 65.0843 92.0739 64.933C93.4312 64.8177 93.9946 65.394 93.9946 66.8537C93.8321 68.6059 93.3159 70.307 92.4773 71.8541C90.7078 75.5834 88.2512 78.9458 85.2361 81.7651L85.2617 81.7394Z" fill="#E8E8E8"/>
<path d="M50.5798 66.828C52.8719 62.5768 51.8603 55.5277 44.3374 54.7274C41.4179 54.4137 38.4791 54.6634 35.5532 54.5993C35.406 54.5993 35.2651 54.5993 35.1627 54.753C34.7849 55.3932 34.3944 56.0335 33.9782 56.6737C35.7069 56.7634 35.7709 56.8914 34.9194 58.2679C34.8746 58.332 34.8425 58.396 34.7977 58.46L26.1608 72.3021C24.1547 75.4948 22.155 78.6961 20.1617 81.9058C19.5983 82.815 18.9132 83.4616 17.7416 83.3272C17.5495 83.3272 17.3254 83.2696 17.191 83.4744C16.8004 84.1147 16.4227 84.7165 15.9873 85.3952H26.577C26.6629 85.4138 26.7525 85.4068 26.8344 85.3749C26.9164 85.343 26.9872 85.2877 27.0379 85.2159L28.216 83.2952H26.7498C26.1928 83.2952 26.0456 82.975 26.1992 82.5013C26.2988 82.2468 26.43 82.0059 26.5898 81.7842C28.0559 79.4281 29.5477 77.0976 30.9755 74.7415C31.1131 74.4577 31.3338 74.2224 31.6082 74.0669C31.8826 73.9114 32.1979 73.843 32.5121 73.8707C35.3868 73.8707 38.2743 74.146 41.1234 73.525C45.2081 72.6287 48.5502 70.6183 50.5798 66.828ZM44.9904 65.093C43.0697 68.4479 40.4063 70.9384 36.4304 71.6555C35.2383 71.7935 34.0368 71.8299 32.8386 71.7643L37.2499 64.7216C38.8121 62.2247 40.3807 59.7277 41.9237 57.2243C42.0009 57.038 42.1395 56.8837 42.3165 56.787C42.4935 56.6903 42.6983 56.6571 42.8968 56.6929C43.1463 56.709 43.3965 56.709 43.6459 56.6929C44.0097 56.6819 44.3721 56.7427 44.7123 56.8719C45.0526 57.0011 45.364 57.1963 45.6286 57.4461C45.8933 57.6959 46.1061 57.9955 46.2548 58.3277C46.4034 58.6599 46.4851 59.0182 46.495 59.382C46.6249 61.3965 46.1017 63.3993 45.0033 65.093H44.9904Z" fill="#E8E8E8"/>
</svg>
