<svg width="21" height="20" viewBox="0 0 21 20" fill="none" xmlns="http://www.w3.org/2000/svg">
<path d="M15.2196 17.5047C14.9757 15.5293 13.2914 14 11.25 14H9.25C7.20858 14 5.52433 15.5293 5.28036 17.5047M15.2196 17.5047C17.6486 15.893 19.25 13.1335 19.25 10C19.25 5.02944 15.2206 1 10.25 1C5.27944 1 1.25 5.02944 1.25 10C1.25 13.1335 2.85137 15.893 5.28036 17.5047M15.2196 17.5047C13.7956 18.4496 12.0871 19 10.25 19C8.41293 19 6.70441 18.4496 5.28036 17.5047M13.25 8C13.25 9.65685 11.9069 11 10.25 11C8.59315 11 7.25 9.65685 7.25 8C7.25 6.34315 8.59315 5 10.25 5C11.9069 5 13.25 6.34315 13.25 8Z" stroke="#89867E" stroke-width="2" stroke-linecap="round" stroke-linejoin="round"/>
</svg>
