<svg width="19" height="19" viewBox="0 0 19 19" fill="none" xmlns="http://www.w3.org/2000/svg">
<path fill-rule="evenodd" clip-rule="evenodd" d="M2.74969 7C2.74969 5.14348 3.48718 3.36301 4.79994 2.05025C6.11269 0.737498 7.89317 0 9.74969 0C11.6062 0 13.3867 0.737498 14.6994 2.05025C16.0122 3.36301 16.7497 5.14348 16.7497 7V10.764L18.5717 14.408C18.6556 14.5757 18.6952 14.7621 18.6867 14.9494C18.6783 15.1368 18.6221 15.3188 18.5235 15.4783C18.4249 15.6379 18.2872 15.7695 18.1234 15.8608C17.9596 15.9521 17.7752 16 17.5877 16H13.6237C13.4012 16.8582 12.9001 17.6183 12.1989 18.1609C11.4978 18.7035 10.6363 18.9979 9.74969 18.9979C8.86309 18.9979 8.00159 18.7035 7.30042 18.1609C6.59926 17.6183 6.09812 16.8582 5.87569 16H1.91169C1.72416 16 1.53975 15.9521 1.37595 15.8608C1.21216 15.7695 1.07442 15.6379 0.975831 15.4783C0.877239 15.3188 0.821061 15.1368 0.812635 14.9494C0.804208 14.7621 0.843813 14.5757 0.927686 14.408L2.74969 10.764V7ZM8.01769 16C8.19323 16.304 8.4457 16.5565 8.74973 16.732C9.05376 16.9075 9.39863 16.9999 9.74969 16.9999C10.1007 16.9999 10.4456 16.9075 10.7496 16.732C11.0537 16.5565 11.3061 16.304 11.4817 16H8.01769ZM9.74969 2C8.4236 2 7.15183 2.52678 6.21415 3.46447C5.27647 4.40215 4.74969 5.67392 4.74969 7V10.764C4.74967 11.0743 4.67743 11.3804 4.53869 11.658L3.36869 14H16.1317L14.9617 11.658C14.8226 11.3805 14.75 11.0744 14.7497 10.764V7C14.7497 5.67392 14.2229 4.40215 13.2852 3.46447C12.3475 2.52678 11.0758 2 9.74969 2Z" fill="#89867E"/>
</svg>
