<svg width="25" height="14" viewBox="0 0 25 14" fill="none" xmlns="http://www.w3.org/2000/svg">
<path d="M7.25 13V12C7.25 10.6739 7.77678 9.40215 8.71447 8.46447C9.65215 7.52678 10.9239 7 12.25 7M12.25 7C13.5761 7 14.8479 7.52678 15.7855 8.46447C16.7232 9.40215 17.25 10.6739 17.25 12V13M12.25 7C13.0456 7 13.8087 6.68393 14.3713 6.12132C14.9339 5.55871 15.25 4.79565 15.25 4C15.25 3.20435 14.9339 2.44129 14.3713 1.87868C13.8087 1.31607 13.0456 1 12.25 1C11.4544 1 10.6913 1.31607 10.1287 1.87868C9.56607 2.44129 9.25 3.20435 9.25 4C9.25 4.79565 9.56607 5.55871 10.1287 6.12132C10.6913 6.68393 11.4544 7 12.25 7ZM1.25 13V12C1.25 11.2044 1.56607 10.4413 2.12868 9.87868C2.69129 9.31607 3.45435 9 4.25 9M4.25 9C4.78043 9 5.28914 8.78929 5.66421 8.41421C6.03929 8.03914 6.25 7.53043 6.25 7C6.25 6.46957 6.03929 5.96086 5.66421 5.58579C5.28914 5.21071 4.78043 5 4.25 5C3.71957 5 3.21086 5.21071 2.83579 5.58579C2.46071 5.96086 2.25 6.46957 2.25 7C2.25 7.53043 2.46071 8.03914 2.83579 8.41421C3.21086 8.78929 3.71957 9 4.25 9ZM23.25 13V12C23.25 11.2044 22.9339 10.4413 22.3713 9.87868C21.8087 9.31607 21.0456 9 20.25 9M20.25 9C20.7804 9 21.2891 8.78929 21.6642 8.41421C22.0393 8.03914 22.25 7.53043 22.25 7C22.25 6.46957 22.0393 5.96086 21.6642 5.58579C21.2891 5.21071 20.7804 5 20.25 5C19.7196 5 19.2109 5.21071 18.8358 5.58579C18.4607 5.96086 18.25 6.46957 18.25 7C18.25 7.53043 18.4607 8.03914 18.8358 8.41421C19.2109 8.78929 19.7196 9 20.25 9Z" stroke="#89867E" stroke-width="2" stroke-linecap="round" stroke-linejoin="round"/>
</svg>
