<svg width="20" height="20" viewBox="0 0 20 20" fill="none" xmlns="http://www.w3.org/2000/svg">
<path d="M17.8148 7.17104L4.07338 2.07338L4.05385 2.06635C3.77678 1.97049 3.47833 1.95452 3.19261 2.02026C2.90689 2.086 2.64543 2.2308 2.43811 2.43811C2.2308 2.64543 2.086 2.90689 2.02026 3.19261C1.95452 3.47833 1.97049 3.77678 2.06635 4.05385L2.07338 4.07338L7.17103 17.8148C7.2791 18.1187 7.4786 18.3818 7.74213 18.5678C8.00567 18.7539 8.32032 18.8538 8.64291 18.8538H8.67025C8.99979 18.8481 9.31907 18.7384 9.58245 18.5402C9.84583 18.3421 10.0398 18.0658 10.1367 17.7507L10.1437 17.7281L11.8023 11.8023L17.7281 10.1437L17.7507 10.1367C18.0657 10.0408 18.3424 9.84798 18.5413 9.58558C18.7402 9.32318 18.8511 9.00466 18.8582 8.67549C18.8653 8.34632 18.7682 8.02332 18.5808 7.75258C18.3935 7.48185 18.1254 7.27722 17.8148 7.16791V7.17104ZM10.789 10.1398C10.634 10.1832 10.4927 10.2658 10.3789 10.3797C10.265 10.4935 10.1824 10.6347 10.139 10.7898L8.6015 16.2812L4.0726 4.0726L16.2804 8.60385L10.789 10.1398Z" fill="#89867E"/>
</svg>
