<svg width="18" height="18" viewBox="0 0 18 18" fill="none" xmlns="http://www.w3.org/2000/svg">
<path d="M16.8148 6.17104L3.07338 1.07338L3.05385 1.06635C2.77678 0.970488 2.47833 0.954515 2.19261 1.02026C1.90689 1.086 1.64543 1.2308 1.43811 1.43811C1.2308 1.64543 1.086 1.90689 1.02026 2.19261C0.954515 2.47833 0.970488 2.77678 1.06635 3.05385L1.07338 3.07338L6.17103 16.8148C6.2791 17.1187 6.4786 17.3818 6.74213 17.5678C7.00567 17.7539 7.32032 17.8538 7.64291 17.8538H7.67025C7.99979 17.8481 8.31907 17.7384 8.58245 17.5402C8.84583 17.3421 9.03981 17.0658 9.13666 16.7507L9.14369 16.7281L10.8023 10.8023L16.7281 9.14369L16.7507 9.13666C17.0657 9.04085 17.3424 8.84798 17.5413 8.58558C17.7402 8.32318 17.8511 8.00466 17.8582 7.67549C17.8653 7.34632 17.7682 7.02332 17.5808 6.75258C17.3935 6.48185 17.1254 6.27722 16.8148 6.16791V6.17104ZM9.789 9.13979C9.63396 9.1832 9.49272 9.26581 9.37887 9.37965C9.26502 9.4935 9.18242 9.63475 9.139 9.78979L7.6015 15.2812L3.0726 3.0726L15.2804 7.60385L9.789 9.13979Z" fill="#89867E"/>
</svg>
