<svg width="22" height="22" viewBox="0 0 22 22" fill="none" xmlns="http://www.w3.org/2000/svg">
<path fill-rule="evenodd" clip-rule="evenodd" d="M15.1727 20.2884C13.8527 20.2398 10.1118 19.7228 6.194 15.8059C2.27708 11.888 1.761 8.14802 1.7115 6.8271C1.63816 4.8141 3.18 2.85885 4.96108 2.09527C5.17556 2.00266 5.41043 1.9674 5.64265 1.99295C5.87487 2.0185 6.09645 2.10399 6.28566 2.24102C7.75233 3.30985 8.76433 4.92685 9.63333 6.19827C9.82453 6.47761 9.90628 6.81752 9.86301 7.15325C9.81973 7.48898 9.65445 7.79705 9.39866 8.01877L7.61025 9.34702C7.52384 9.40941 7.46302 9.50105 7.43908 9.6049C7.41514 9.70875 7.42971 9.81776 7.48008 9.91169C7.88525 10.6478 8.60575 11.7441 9.43075 12.5691C10.2557 13.3941 11.4043 14.1623 12.1917 14.6133C12.2905 14.6687 12.4067 14.6842 12.5165 14.6566C12.6263 14.6289 12.7213 14.5603 12.7821 14.4648L13.9462 12.6929C14.1603 12.4085 14.476 12.2181 14.8273 12.1614C15.1786 12.1046 15.5383 12.186 15.8309 12.3885C17.1207 13.2814 18.6258 14.2759 19.7277 15.6867C19.8758 15.8773 19.9701 16.1041 20.0005 16.3436C20.031 16.5831 19.9966 16.8263 19.9009 17.0479C19.1337 18.8382 17.1922 20.3626 15.1727 20.2884Z" fill="black"/>
</svg>
