<svg width="16" height="16" viewBox="0 0 16 16" fill="none" xmlns="http://www.w3.org/2000/svg">
<path d="M4.40039 8.75039C4.40039 8.66755 4.33323 8.60039 4.25039 8.60039H2.75039C2.66755 8.60039 2.60039 8.66755 2.60039 8.75039V13.2504C2.60039 13.3332 2.66755 13.4004 2.75039 13.4004H4.25039C4.33323 13.4004 4.40039 13.3332 4.40039 13.2504V8.75039ZM8.90039 5.75039C8.90039 5.66755 8.83323 5.60039 8.75039 5.60039H7.25039C7.16755 5.60039 7.10039 5.66755 7.10039 5.75039V13.2504C7.10039 13.3332 7.16755 13.4004 7.25039 13.4004H8.75039C8.83323 13.4004 8.90039 13.3332 8.90039 13.2504V5.75039ZM13.4004 2.75039C13.4004 2.66755 13.3332 2.60039 13.2504 2.60039H11.7504C11.6675 2.60039 11.6004 2.66755 11.6004 2.75039V13.2504C11.6004 13.3332 11.6675 13.4004 11.7504 13.4004H13.2504C13.3332 13.4004 13.4004 13.3332 13.4004 13.2504V2.75039ZM5.60039 13.2504C5.60039 13.996 4.99598 14.6004 4.25039 14.6004H2.75039C2.00481 14.6004 1.40039 13.996 1.40039 13.2504V8.75039C1.40039 8.00481 2.00481 7.40039 2.75039 7.40039H4.25039C4.99598 7.40039 5.60039 8.00481 5.60039 8.75039V13.2504ZM10.1004 13.2504C10.1004 13.996 9.49598 14.6004 8.75039 14.6004H7.25039C6.50481 14.6004 5.90039 13.996 5.90039 13.2504V5.75039C5.90039 5.00481 6.50481 4.40039 7.25039 4.40039H8.75039C9.49598 4.40039 10.1004 5.00481 10.1004 5.75039V13.2504ZM14.6004 13.2504C14.6004 13.996 13.996 14.6004 13.2504 14.6004H11.7504C11.0048 14.6004 10.4004 13.996 10.4004 13.2504V2.75039C10.4004 2.00481 11.0048 1.40039 11.7504 1.40039H13.2504C13.996 1.40039 14.6004 2.00481 14.6004 2.75039V13.2504Z" fill="#222223"/>
</svg>
