<svg width="175" height="100" viewBox="0 0 175 100" fill="none" xmlns="http://www.w3.org/2000/svg">
<path d="M160.58 20.6731C161.694 18.8228 162.756 17.0622 163.902 15.1734C161.822 15.1734 159.92 15.1734 158.019 15.1734C157.872 15.1674 157.727 15.2058 157.603 15.2834C157.478 15.3611 157.38 15.4745 157.321 15.6088C156.61 16.7548 155.874 17.8881 155.176 19.0405C154.984 19.3928 154.723 19.7026 154.408 19.9513C154.094 20.2 153.732 20.3824 153.345 20.4875C151.843 20.9256 150.53 21.8515 149.612 23.1189L143.626 30.629C141.327 33.5037 139.023 36.3912 136.173 38.7345C134.374 40.2198 132.415 41.2955 129.976 41.161C127.985 41.0522 127.037 39.9765 127.172 37.9918C127.368 36.201 127.9 34.4634 128.74 32.8698C128.807 32.6705 128.938 32.4992 129.113 32.3831C129.288 32.2671 129.497 32.213 129.707 32.2296C131.711 32.1591 133.715 32.1079 135.712 31.9223C138.369 31.6662 140.783 30.757 142.602 28.721C145.387 25.5774 144.01 21.3006 139.919 20.3978C137.249 19.8024 134.707 20.353 132.236 21.4286C128.907 22.9964 125.951 25.258 123.567 28.0616C120.475 31.4741 117.805 35.2259 114.872 38.7793C114.329 39.5286 113.711 40.2214 113.029 40.8473C112.329 41.4894 111.417 41.8497 110.468 41.8589C110.476 41.7909 110.494 41.7242 110.519 41.6604C111.569 39.9894 112.612 38.3247 113.669 36.6537C114.169 35.9095 114.574 35.1049 114.872 34.2592C115.73 31.6085 114.54 29.7262 111.786 29.3933C111.197 29.3229 110.602 29.2844 110.013 29.2268C110.566 28.9251 111.15 28.6826 111.754 28.5033C114.088 27.7982 116.333 26.8272 118.445 25.6094C119.163 25.1969 119.785 24.636 120.27 23.964C121.32 22.3826 120.526 20.7628 118.624 20.6923C117.773 20.6475 116.921 20.6923 116.063 20.6923C115.899 20.6736 115.732 20.7051 115.586 20.7829C115.44 20.8606 115.32 20.9808 115.244 21.1277C114.604 22.2161 113.906 23.2917 113.227 24.3674C112.378 25.734 111.131 26.8085 109.654 27.4469C107.536 28.3302 105.465 29.3239 103.45 30.4241L102.375 31.0195L102.272 30.9171L114.725 10.9286C112.74 10.9286 110.884 10.9286 109.091 10.9286C108.91 10.9119 108.729 10.9507 108.571 11.04C108.413 11.1292 108.286 11.2646 108.208 11.428C106.588 13.989 104.949 16.55 103.335 19.1558C102.963 19.8143 102.354 20.3065 101.632 20.5323C100.286 20.9533 99.1056 21.7864 98.2581 22.914C95.3258 26.589 92.4126 30.2832 89.4483 33.9262C87.7541 36.1523 85.7211 38.0988 83.4236 39.6948C81.8786 40.7899 79.9968 41.3046 78.1096 41.1482C77.7792 41.145 77.4528 41.0757 77.1497 40.9445C76.8465 40.8133 76.5726 40.6228 76.3441 40.3842C76.1156 40.1455 75.9372 39.8636 75.8193 39.555C75.7013 39.2465 75.6463 38.9174 75.6574 38.5872C75.6375 37.8354 75.7281 37.0847 75.9263 36.3592C76.8547 32.9531 78.7178 30.0399 80.805 27.2549C82.0148 25.522 83.4805 23.9828 85.1523 22.6899C85.6445 22.3024 86.2216 22.037 86.8361 21.9152C87.6428 21.8 88.027 22.1649 87.9629 22.9716C87.8971 23.5674 87.7189 24.1452 87.4379 24.6747C86.7857 25.9164 85.9432 27.0483 84.941 28.0296C84.7617 28.2088 84.4672 28.3689 84.941 28.593C86.1722 29.2354 87.5788 29.4601 88.9489 29.2332C90.5687 28.9259 91.83 28.0936 92.3358 26.4225C92.6725 25.2804 92.5581 24.0525 92.016 22.9923C91.474 21.932 90.5457 21.1202 89.4227 20.7244C87.5374 20.0394 85.486 19.9567 83.5516 20.4875C79.819 21.3262 76.8355 23.4646 74.076 25.9872C71.9717 28.0241 70.0301 30.2226 68.269 32.5625C67.6895 33.3545 66.8699 33.9383 65.9321 34.2271L66.2586 33.5869C67.3758 31.6683 68.1473 29.5684 68.5379 27.3829C69.0629 24.0536 67.411 21.3134 64.2738 20.449C63.2552 20.1816 62.2009 20.0757 61.1494 20.1353C57.9493 20.2704 54.8873 21.4767 52.4549 23.5606C48.3957 26.9091 45.5851 31.0515 44.6183 36.2887C43.9781 39.9061 46.0653 42.9345 49.5994 43.4659C52.218 43.861 54.8949 43.4595 57.2824 42.3134C60.0015 40.9593 62.382 39.012 64.2482 36.6153C64.4211 36.4104 64.5299 36.1479 64.8885 36.1351C67.251 36.0518 68.9668 34.7842 70.4202 33.0747C71.3037 32.0247 72.1425 30.9235 72.9812 29.8735C73.122 29.6942 73.2309 29.4765 73.4678 29.4189C73.5842 29.3803 73.7099 29.3803 73.8263 29.4189C73.9544 29.5021 73.8647 29.6366 73.8263 29.739C73.7879 29.8415 73.6406 30.0399 73.551 30.1872C72.2705 32.3448 70.99 34.5153 70.6571 37.0954C70.396 38.4889 70.6963 39.9291 71.4927 41.1021C72.2891 42.275 73.5168 43.0856 74.9083 43.357C76.5568 43.7245 78.2643 43.7399 79.9192 43.4023C81.5741 43.0647 83.1391 42.3817 84.512 41.3979C87.4059 39.4772 89.634 36.8522 91.798 34.1887C94.6791 30.6418 97.509 27.0436 100.377 23.4774C100.614 23.1893 100.928 22.6131 101.28 22.8372C101.632 23.0613 101.216 23.5927 101.011 23.9192C97.2081 29.9972 93.4008 36.0668 89.5892 42.1278C89.3509 42.3916 89.1873 42.7143 89.1154 43.0625C90.9913 43.0625 92.8416 43.0625 94.6919 43.0625C94.8855 43.0785 95.0794 43.0349 95.2476 42.9376C95.4158 42.8404 95.5503 42.6941 95.6331 42.5183C96.9904 40.3031 98.4181 38.1326 99.7371 35.8982C101.248 33.3372 103.579 31.9223 106.287 30.9555C107.037 30.651 107.871 30.6193 108.643 30.8659C108.909 30.9449 109.142 31.1081 109.307 31.3309C109.472 31.5538 109.56 31.8242 109.558 32.1015C109.571 32.678 109.42 33.2463 109.123 33.7406C108.604 34.6497 108.047 35.5396 107.497 36.4296C106.993 37.1604 106.585 37.9521 106.28 38.7857C105.525 41.2763 106.69 43.2034 109.264 43.5747C110.208 43.7208 111.172 43.6584 112.089 43.3918C113.006 43.1252 113.853 42.661 114.572 42.0317C115.948 40.8729 116.934 39.3875 118.048 38.0046C120.193 35.3348 122.299 32.6329 124.451 29.9503C124.886 29.3933 124.892 29.3933 125.475 29.5405L125.04 30.2384C123.823 32.2488 122.658 34.272 122.229 36.6409C121.633 39.9125 123.253 42.608 126.358 43.3442C128.39 43.8331 130.517 43.7511 132.505 43.1074C135.431 42.1726 137.71 40.2839 139.784 38.1198C142.448 35.3284 144.842 32.3128 147.25 29.3036C148.85 27.2847 150.466 25.2786 152.096 23.2853C152.333 23.0036 152.737 22.6451 153.044 22.8628C153.351 23.0805 153.044 23.503 152.852 23.8359C151.217 26.4353 149.58 29.0326 147.941 31.6277C146.705 33.5933 145.425 35.5332 144.247 37.5308C142.627 40.2647 143.978 43.1266 147.115 43.5555C148.446 43.767 149.809 43.6272 151.069 43.1499C152.329 42.6726 153.442 41.8745 154.299 40.8345C155.725 39.0656 157.04 37.2095 158.236 35.2771C158.236 35.2771 158.236 35.1875 158.185 35.1171C157.789 35.1427 157.391 35.1427 156.994 35.1171C156.645 35.0524 156.284 35.1044 155.967 35.2653C155.65 35.4261 155.394 35.6867 155.24 36.007C154.466 37.2919 153.593 38.5142 152.628 39.6628C152.056 40.3858 151.321 40.9625 150.483 41.3455C149.645 41.7284 148.727 41.9066 147.807 41.8653C147.839 41.7525 147.882 41.6432 147.935 41.5387C151.648 35.4095 155.362 29.2844 159.075 23.1637C159.148 23.0359 159.258 22.9336 159.391 22.8707C159.524 22.8077 159.673 22.787 159.818 22.8116C160.893 22.8116 161.969 22.8116 163.019 22.8116C163.224 22.8116 163.474 22.9076 163.659 22.6579L164.869 20.6795L160.58 20.6731ZM132.185 27.3765C133.389 25.7082 134.802 24.2019 136.391 22.8948C136.926 22.4415 137.553 22.1094 138.229 21.9216C139.195 21.6847 139.676 22.1713 139.509 23.1445C139.409 23.684 139.225 24.2046 138.965 24.6875C137.883 26.731 136.268 28.4434 134.291 29.643C133.027 30.4111 131.537 30.7209 130.072 30.5201C130.702 29.4241 131.408 28.3736 132.185 27.3765ZM62.1418 29.2972C60.3128 33.1436 57.8057 36.6289 54.7406 39.586C53.9606 40.4012 53.0063 41.0294 51.9491 41.4235C50.2076 41.9869 49.2409 41.1994 49.3881 39.4131C49.6741 37.3601 50.3592 35.383 51.4049 33.5933C53.1991 30.0626 55.5806 26.8627 58.4476 24.1305C59.2842 23.2613 60.3287 22.62 61.4824 22.2673C62.8781 21.9152 63.7552 22.6259 63.7296 23.4006C63.6507 25.4606 63.108 27.4762 62.1418 29.2972Z" fill="#E8E8E8"/>
<path d="M41.462 38.6134L40.8218 38.9208L39.9126 39.3433L38.901 39.8107L37.9407 40.2589L37.1724 40.611C37.0315 40.6814 36.8907 40.7583 36.7434 40.8159C36.3977 40.9503 36.5449 40.2973 36.5833 39.9836L36.641 39.5354C37.0763 36.5775 37.5245 33.6131 37.9215 30.6488C38.1455 29.0162 38.1263 29.0546 39.7141 28.6448C43.1074 27.7613 45.9565 26.0838 47.6148 22.8506C49.2154 19.739 48.5303 16.1984 45.9757 14.2713C44.1447 12.9789 41.9485 12.3059 39.7077 12.3506C36.9995 12.2737 34.2913 12.3506 31.5894 12.3506C31.3973 12.3506 31.1605 12.2545 31.0324 12.4594C30.6227 13.0996 30.2385 13.7399 29.8095 14.4249C31.5382 14.4954 31.6022 14.6298 30.7379 16.0256C30.7379 16.0704 30.6931 16.1152 30.6611 16.16C27.8952 20.5777 25.1208 24.9975 22.3379 29.4195C20.2037 32.8043 18.0866 36.1912 15.9866 39.5802C15.4104 40.515 14.7061 41.1872 13.5153 41.04C13.4063 41.0096 13.2904 41.0157 13.1852 41.0573C13.08 41.0989 12.9913 41.1738 12.9327 41.2705C12.5805 41.8595 12.2092 42.4421 11.8442 43.0311C11.9531 43.0888 11.9915 43.1272 12.0299 43.1272H22.3315C22.5043 43.1272 22.6836 43.1272 22.7988 42.9671L24.0153 41.0464H22.5107C21.9857 41.0464 21.8705 40.7198 21.9985 40.2845C22.0676 40.0717 22.1691 39.8708 22.2995 39.6891C24.3995 36.2787 26.5037 32.8918 28.6123 29.5283C28.7403 29.3235 28.8364 29.0994 29.1629 29.1058C30.3089 29.1058 31.4614 29.1058 32.6458 29.1058C32.3001 31.2314 31.9608 33.293 31.6342 35.361C31.3077 37.429 30.994 39.5482 30.6611 41.6482C30.5074 42.679 30.8019 43.0567 31.8327 43.0695C32.8635 43.0824 36.4809 43.0695 36.6666 43.0695C37.7358 42.9991 42.5696 40.3229 42.5696 40.3229L41.7181 38.479L41.462 38.6134ZM33.3757 26.8905C32.3961 26.8905 31.423 26.8905 30.2705 26.8905C31.3269 25.2003 32.3001 23.6381 33.2797 22.0823C34.7586 19.7134 36.2632 17.3573 37.7166 14.9692C37.8087 14.7691 37.9636 14.6046 38.1577 14.5006C38.3518 14.3966 38.5746 14.3588 38.7922 14.3929C39.416 14.3803 40.0397 14.4254 40.6553 14.5274C41.2904 14.6399 41.8647 14.9749 42.2754 15.4723C42.686 15.9697 42.906 16.5971 42.8962 17.242C42.9922 20.6673 41.3148 23.1899 38.6897 25.1811C37.1712 26.3518 35.292 26.9564 33.3757 26.8905Z" fill="#E8E8E8"/>
<path d="M135.208 78.0452C134.478 79.1849 133.69 80.2861 132.89 81.3681C132.218 82.3429 131.317 83.1368 130.265 83.6794C129.513 84.0963 128.645 84.258 127.793 84.1404C134.087 73.826 140.336 63.5885 146.636 53.2549C144.715 53.2549 142.942 53.2549 141.162 53.2549C140.945 53.2322 140.726 53.2756 140.534 53.3796C140.342 53.4836 140.186 53.6432 140.086 53.8375C138.492 56.3985 136.853 58.9595 135.252 61.5205C134.901 62.1656 134.314 62.6498 133.613 62.8714C132.148 63.3347 130.872 64.2602 129.977 65.5092C127.975 68.0403 125.964 70.565 123.946 73.0833C121.711 75.8876 119.464 78.6727 116.698 80.9904C114.899 82.4949 112.933 83.6154 110.462 83.5001C108.362 83.3977 107.395 82.2645 107.6 80.1644C107.839 78.3744 108.392 76.6406 109.233 75.0425C109.306 74.8863 109.426 74.757 109.576 74.6731C109.727 74.5892 109.9 74.5549 110.071 74.5751C112.095 74.4919 114.131 74.4534 116.147 74.2614C118.755 74.1187 121.207 72.9741 122.992 71.0666C125.828 67.9165 124.464 63.6013 120.335 62.6729C117.582 62.0327 114.957 62.6729 112.46 63.7998C108.618 65.5604 105.583 68.3455 102.92 71.5403C100.052 74.9785 97.2986 78.5126 94.5007 82.0084C93.9502 82.7567 93.2364 83.3698 92.4135 83.801C91.927 84.0867 91.3599 84.2037 90.8001 84.134L110.123 53.2549C108.157 53.2549 106.352 53.2549 104.546 53.2549C104.318 53.233 104.088 53.2829 103.89 53.3977C103.691 53.5125 103.533 53.6864 103.439 53.8952C101.006 57.8263 98.5406 61.7382 96.0885 65.6501C95.9861 65.8037 95.9476 66.0662 95.6851 66.0342C95.4226 66.0022 95.5315 65.7589 95.5187 65.6117C95.5191 64.8242 95.2135 64.0674 94.6663 63.5012C94.1192 62.9349 93.3733 62.6035 92.5863 62.5769C89.8061 62.3188 87.0134 62.9176 84.5833 64.2927C81.1207 66.182 78.083 68.7621 75.6582 71.8733C72.982 75.1129 70.3954 78.4294 67.7704 81.7138C67.1694 82.5796 66.3818 83.2994 65.4655 83.8202C65.2266 83.9726 64.9599 84.076 64.6807 84.1243C64.4015 84.1727 64.1155 84.1651 63.8393 84.102L77.0284 63.0315C75.671 63.0315 74.4674 63.0315 73.2253 63.0315C72.5209 62.9984 71.8201 63.1499 71.1923 63.4711C70.5646 63.7923 70.0316 64.272 69.6463 64.8626C69.4479 65.1507 69.2558 65.4452 69.0637 65.7333C68.9677 65.8742 68.9037 66.0918 68.686 66.0278C68.4683 65.9638 68.5707 65.7333 68.5579 65.5796C68.5268 64.8084 68.2124 64.0758 67.675 63.5218C67.1375 62.9678 66.4147 62.6314 65.6448 62.5769C63.368 62.2864 61.0574 62.7163 59.0375 63.8062C54.6198 66.1239 51.5658 69.7476 49.4338 74.2038C48.3005 76.5919 47.6283 79.0504 48.0893 81.7394C48.5822 84.5757 50.7271 86.2788 53.4929 85.9715C54.8449 85.8441 56.1316 85.3307 57.2 84.4925C57.8402 83.9867 58.4804 83.4297 59.1207 82.8919C59.2551 82.7831 59.3704 82.623 59.5753 82.6998C59.7802 82.7766 59.6841 82.9559 59.7033 83.0904C59.7035 83.7996 59.9736 84.4821 60.4587 84.9994C60.9439 85.5167 61.6078 85.8299 62.3155 85.8754C65.1646 86.3556 67.4375 85.2992 69.1982 83.1288C71.5415 80.2605 73.8143 77.3666 76.1192 74.4406L78.04 72.0397C78.2256 71.8028 78.4881 71.6044 78.7314 71.7964C78.9747 71.9885 78.6674 72.187 78.565 72.3598C77.9247 73.4867 77.2333 74.5879 76.6442 75.7339C75.7007 77.3637 75.21 79.2161 75.2229 81.0992C75.3061 83.8395 76.8619 85.709 79.3589 85.9587C80.8676 86.1086 82.382 85.7357 83.6485 84.9023C84.4683 84.3679 85.2338 83.7546 85.9342 83.0712C86.1071 82.9111 86.2415 82.6038 86.5296 82.7062C86.8177 82.8087 86.6641 83.1032 86.6897 83.3081C86.7497 83.9069 86.9995 84.4709 87.4026 84.9178C87.8057 85.3646 88.341 85.671 88.9305 85.7922C89.3684 85.9012 89.8174 85.9592 90.2687 85.9651C92.9705 86.0739 94.9296 84.7422 96.5367 82.719L104.86 72.2638C105.097 71.9565 105.314 71.5531 105.91 71.8156C105.641 72.251 105.391 72.6223 105.167 73.0065C103.989 74.8053 103.135 76.7967 102.645 78.8904C102.004 82.3221 103.688 84.9983 107.062 85.7154C108.658 86.051 110.306 86.0502 111.901 85.7128C113.496 85.3755 115.004 84.7091 116.327 83.7562C118.888 82.0276 120.911 79.7291 122.902 77.4178C126.071 73.7364 128.984 69.8501 132.064 66.0918C132.378 65.7077 132.704 64.8626 133.248 65.2275C133.793 65.5924 133.024 66.1367 132.768 66.5464C130.105 70.8147 127.429 75.0638 124.739 79.2937C124.379 79.8316 124.086 80.4123 123.869 81.0224C123.068 83.4553 124.285 85.5041 126.801 85.8626C128.269 86.1136 129.777 85.9402 131.15 85.3629C132.522 84.7855 133.701 83.8283 134.548 82.6038C135.668 81.1376 136.68 79.5818 137.749 78.058C137.865 77.8852 138.082 77.7443 138.018 77.4178C137.5 77.4178 136.975 77.4562 136.462 77.4178C136.213 77.3719 135.956 77.4083 135.73 77.5215C135.504 77.6347 135.32 77.8185 135.208 78.0452ZM117.332 64.8562C117.772 64.5203 118.289 64.3002 118.836 64.2159C119.682 64.1135 120.066 64.504 119.925 65.3492C119.881 65.7197 119.784 66.082 119.637 66.4248C118.498 69.0023 116.49 71.0982 113.964 72.347C112.848 72.813 111.636 73.004 110.43 72.9041C112.376 69.7861 114.432 66.969 117.332 64.8562ZM57.789 82.1428C57.0839 82.7847 56.2337 83.2461 55.3112 83.4873C53.9283 83.8138 53.1088 83.18 53.1024 81.7843C53.1377 80.287 53.4959 78.8151 54.1524 77.469C55.9151 73.4235 58.4885 69.7824 61.7137 66.7705C62.4851 65.9778 63.4392 65.3864 64.4924 65.0482C65.9201 64.6641 67.1238 65.0482 66.9701 66.7641C66.8739 68.3439 66.4532 69.8869 65.7344 71.297C63.8836 75.4481 61.1657 79.1549 57.7634 82.1684L57.789 82.1428ZM85.2619 81.7394C84.4816 82.5214 83.5239 83.1035 82.4705 83.4361C80.8314 83.8715 79.9095 83.116 80.0759 81.4321C80.2835 79.6696 80.8222 77.9622 81.6638 76.3998C83.4873 72.5457 86.0826 69.107 89.2891 66.2967C90.0515 65.5614 91.0258 65.0843 92.0742 64.933C93.4315 64.8177 93.9949 65.394 93.9949 66.8537C93.8323 68.6059 93.3161 70.307 92.4775 71.8541C90.708 75.5834 88.2514 78.9458 85.2363 81.7651L85.2619 81.7394Z" fill="#E8E8E8"/>
<path d="M50.5798 66.8283C52.8719 62.577 51.8603 55.5279 44.3374 54.7276C41.4179 54.4139 38.4791 54.6636 35.5532 54.5996C35.406 54.5996 35.2651 54.5996 35.1627 54.7532C34.7849 55.3935 34.3944 56.0337 33.9782 56.674C35.7069 56.7636 35.7709 56.8917 34.9194 58.2682C34.8746 58.3322 34.8425 58.3962 34.7977 58.4603L26.1608 72.3024C24.1547 75.4951 22.155 78.6963 20.1617 81.9061C19.5983 82.8152 18.9132 83.4619 17.7416 83.3274C17.5495 83.3274 17.3254 83.2698 17.191 83.4747C16.8004 84.1149 16.4227 84.7168 15.9873 85.3954H26.577C26.6629 85.4141 26.7525 85.407 26.8344 85.3751C26.9164 85.3432 26.9872 85.288 27.0379 85.2161L28.216 83.2954H26.7498C26.1928 83.2954 26.0456 82.9753 26.1992 82.5015C26.2988 82.247 26.43 82.0061 26.5898 81.7844C28.0559 79.4283 29.5477 77.0978 30.9755 74.7417C31.1131 74.4579 31.3338 74.2227 31.6082 74.0672C31.8826 73.9117 32.1979 73.8432 32.5121 73.871C35.3868 73.871 38.2743 74.1463 41.1234 73.5252C45.2081 72.6289 48.5502 70.6185 50.5798 66.8283ZM44.9904 65.0932C43.0697 68.4481 40.4063 70.9387 36.4304 71.6557C35.2383 71.7937 34.0368 71.8301 32.8386 71.7646L37.2499 64.7219C38.8121 62.2249 40.3807 59.7279 41.9237 57.2246C42.0009 57.0382 42.1395 56.8839 42.3165 56.7872C42.4935 56.6906 42.6983 56.6574 42.8968 56.6932C43.1463 56.7092 43.3965 56.7092 43.6459 56.6932C44.0097 56.6821 44.3721 56.7429 44.7123 56.8722C45.0526 57.0014 45.364 57.1965 45.6286 57.4463C45.8933 57.6961 46.1061 57.9957 46.2548 58.3279C46.4034 58.6601 46.4851 59.0184 46.495 59.3822C46.6249 61.3968 46.1017 63.3995 45.0033 65.0932H44.9904Z" fill="#E8E8E8"/>
</svg>
