<svg width="18" height="19" viewBox="0 0 18 19" fill="none" xmlns="http://www.w3.org/2000/svg">
<path d="M16.5449 11.7339C17.0971 11.734 17.5449 12.1817 17.5449 12.7339V14.1353C17.5449 14.7223 17.5452 15.2227 17.5117 15.6323C17.4773 16.0535 17.4023 16.4659 17.2012 16.8608C16.8987 17.4545 16.4159 17.9382 15.8223 18.2407C15.4273 18.442 15.0141 18.5168 14.5928 18.5513C14.1832 18.5847 13.6827 18.5845 13.0957 18.5845H4.9043C4.31735 18.5845 3.81679 18.5847 3.40723 18.5513C2.98595 18.5168 2.57275 18.442 2.17774 18.2407C1.58403 17.9382 1.10136 17.4546 0.798834 16.8608C0.597687 16.4659 0.521725 16.0535 0.487311 15.6323C0.453853 15.2228 0.455084 14.7223 0.455084 14.1353V12.7339C0.455084 12.1816 0.902799 11.7339 1.45508 11.7339C2.00733 11.7339 2.45508 12.1816 2.45508 12.7339V14.1353C2.45508 14.7551 2.4562 15.16 2.48145 15.4692C2.50577 15.7668 2.54738 15.8875 2.58106 15.9536C2.69187 16.1709 2.86863 16.3478 3.08594 16.4585C3.15202 16.4922 3.27214 16.5338 3.56934 16.5581C3.87863 16.5834 4.28421 16.5845 4.9043 16.5845H13.0957C13.7155 16.5845 14.1205 16.5833 14.4297 16.5581C14.7273 16.5338 14.848 16.4922 14.9141 16.4585C15.1314 16.3477 15.3082 16.1709 15.419 15.9536C15.4526 15.8875 15.4942 15.7668 15.5186 15.4692C15.5438 15.16 15.5449 14.7551 15.5449 14.1353V12.7339C15.5449 12.1816 15.9926 11.7339 16.5449 11.7339ZM9.00001 0.416504C9.26506 0.416585 9.51958 0.52208 9.70704 0.709473L14.5566 5.56006L14.626 5.63525C14.9464 6.02803 14.9228 6.60797 14.5566 6.97412C14.1905 7.33981 13.6114 7.36276 13.2188 7.04248L13.1426 6.97412L10 3.83057V12.1948C9.99999 12.747 9.55214 13.1947 9.00001 13.1948C8.44786 13.1947 8.00002 12.747 8.00001 12.1948V3.83057L4.85645 6.97412C4.46595 7.3643 3.83283 7.3644 3.44239 6.97412C3.05208 6.58369 3.0522 5.95057 3.44239 5.56006L8.29297 0.709473L8.36622 0.643066C8.54408 0.497382 8.76809 0.416566 9.00001 0.416504Z" fill="#89867E"/>
</svg>
