<svg width="18" height="19" viewBox="0 0 18 19" fill="none" xmlns="http://www.w3.org/2000/svg">
<path d="M16.8267 11.8357C17.4042 11.8358 17.8725 12.304 17.8725 12.8815V14.347C17.8725 14.961 17.8728 15.4843 17.8378 15.9127C17.8018 16.3531 17.7234 16.7844 17.513 17.1974C17.1966 17.8183 16.6918 18.3241 16.071 18.6405C15.6579 18.851 15.2257 18.9293 14.7852 18.9653C14.3568 19.0003 13.8334 19 13.2195 19H4.65298C4.03914 19 3.51566 19.0002 3.08735 18.9653C2.64678 18.9293 2.21465 18.851 1.80155 18.6405C1.18065 18.3241 0.675878 17.8183 0.359493 17.1974C0.149134 16.7844 0.0696926 16.3531 0.0337024 15.9127C-0.00128726 15.4843 -2.01922e-07 14.9609 0 14.347V12.8815C0 12.3039 0.468219 11.8357 1.0458 11.8357C1.62334 11.8357 2.09159 12.3039 2.09159 12.8815V14.347C2.09159 14.9953 2.09276 15.4187 2.11917 15.7421C2.1446 16.0533 2.18812 16.1795 2.22334 16.2487C2.33922 16.4759 2.52408 16.6609 2.75134 16.7767C2.82045 16.8119 2.94607 16.8554 3.25688 16.8808C3.58033 16.9073 4.00449 16.9084 4.65298 16.9084H13.2195C13.8677 16.9084 14.2912 16.9072 14.6146 16.8808C14.9258 16.8554 15.052 16.8119 15.1212 16.7767C15.3484 16.6608 15.5333 16.4759 15.6492 16.2487C15.6844 16.1795 15.7279 16.0533 15.7533 15.7421C15.7797 15.4187 15.7809 14.9953 15.7809 14.347V12.8815C15.7809 12.3039 16.2491 11.8357 16.8267 11.8357ZM8.93625 0C9.21344 8.5014e-05 9.47962 0.110412 9.67566 0.306386L14.7474 5.37911C15.1558 5.78752 15.1558 6.44953 14.7474 6.85793C14.3389 7.26585 13.6768 7.26618 13.2685 6.85793L9.98205 3.57041V12.3177C9.98203 12.8952 9.51367 13.3634 8.93625 13.3635C8.35881 13.3634 7.89047 12.8952 7.89045 12.3177V3.57041L4.60293 6.85793C4.19455 7.26598 3.53243 7.26609 3.12411 6.85793C2.71593 6.44962 2.71605 5.78751 3.12411 5.37911L8.19684 0.306386L8.27344 0.236938C8.45944 0.0845823 8.69371 6.4887e-05 8.93625 0Z" fill="#89867E"/>
</svg>
