<svg width="32" height="32" viewBox="0 0 32 32" fill="none" xmlns="http://www.w3.org/2000/svg">
<path d="M8.00002 15.9998C8.00002 16.7071 7.71907 17.3854 7.21897 17.8855C6.71887 18.3856 6.0406 18.6665 5.33335 18.6665C4.62611 18.6665 3.94783 18.3856 3.44774 17.8855C2.94764 17.3854 2.66669 16.7071 2.66669 15.9998C2.66669 15.2926 2.94764 14.6143 3.44774 14.1142C3.94783 13.6141 4.62611 13.3332 5.33335 13.3332C6.0406 13.3332 6.71887 13.6141 7.21897 14.1142C7.71907 14.6143 8.00002 15.2926 8.00002 15.9998ZM8.00002 15.9998H12C12.3536 15.9998 12.6928 16.1403 12.9428 16.3904C13.1929 16.6404 13.3334 16.9795 13.3334 17.3332V25.3332C13.3334 25.6868 13.1929 26.0259 12.9428 26.276C12.6928 26.526 12.3536 26.6665 12 26.6665H8.00002M8.00002 26.6665C8.00002 27.3737 7.71907 28.052 7.21897 28.5521C6.71887 29.0522 6.0406 29.3332 5.33335 29.3332C4.62611 29.3332 3.94783 29.0522 3.44774 28.5521C2.94764 28.052 2.66669 27.3737 2.66669 26.6665C2.66669 25.9593 2.94764 25.281 3.44774 24.7809C3.94783 24.2808 4.62611 23.9998 5.33335 23.9998C6.0406 23.9998 6.71887 24.2808 7.21897 24.7809C7.71907 25.281 8.00002 25.9593 8.00002 26.6665ZM2.66669 5.33317C2.66669 6.04041 2.94764 6.71869 3.44774 7.21879C3.94783 7.71889 4.62611 7.99984 5.33335 7.99984C6.0406 7.99984 6.71887 7.71889 7.21897 7.21879C7.71907 6.71869 8.00002 6.04041 8.00002 5.33317C8.00002 4.62593 7.71907 3.94765 7.21897 3.44755C6.71887 2.94746 6.0406 2.6665 5.33335 2.6665C4.62611 2.6665 3.94783 2.94746 3.44774 3.44755C2.94764 3.94765 2.66669 4.62593 2.66669 5.33317ZM24 13.3332C24 14.0404 24.281 14.7187 24.7811 15.2188C25.2812 15.7189 25.9594 15.9998 26.6667 15.9998C27.3739 15.9998 28.0522 15.7189 28.5523 15.2188C29.0524 14.7187 29.3334 14.0404 29.3334 13.3332C29.3334 12.6259 29.0524 11.9476 28.5523 11.4476C28.0522 10.9475 27.3739 10.6665 26.6667 10.6665C25.9594 10.6665 25.2812 10.9475 24.7811 11.4476C24.281 11.9476 24 12.6259 24 13.3332Z" stroke="white" stroke-width="2" stroke-linecap="round" stroke-linejoin="round"/>
<path d="M8 5.33301H17.3333C17.687 5.33301 18.0261 5.47348 18.2761 5.72353C18.5262 5.97358 18.6667 6.31272 18.6667 6.66634V19.9997C18.6667 20.3533 18.5262 20.6924 18.2761 20.9425C18.0261 21.1925 17.687 21.333 17.3333 21.333H14.6667M18.6667 13.333H24" stroke="white" stroke-width="2" stroke-linecap="round" stroke-linejoin="round"/>
</svg>
