<svg width="22" height="22" viewBox="0 0 22 22" fill="none" xmlns="http://www.w3.org/2000/svg">
<path d="M5 11C5 11.5304 4.78929 12.0391 4.41421 12.4142C4.03914 12.7893 3.53043 13 3 13C2.46957 13 1.96086 12.7893 1.58579 12.4142C1.21071 12.0391 1 11.5304 1 11C1 10.4696 1.21071 9.96086 1.58579 9.58579C1.96086 9.21071 2.46957 9 3 9C3.53043 9 4.03914 9.21071 4.41421 9.58579C4.78929 9.96086 5 10.4696 5 11ZM5 11H8C8.26522 11 8.51957 11.1054 8.70711 11.2929C8.89464 11.4804 9 11.7348 9 12V18C9 18.2652 8.89464 18.5196 8.70711 18.7071C8.51957 18.8946 8.26522 19 8 19H5M5 19C5 19.5304 4.78929 20.0391 4.41421 20.4142C4.03914 20.7893 3.53043 21 3 21C2.46957 21 1.96086 20.7893 1.58579 20.4142C1.21071 20.0391 1 19.5304 1 19C1 18.4696 1.21071 17.9609 1.58579 17.5858C1.96086 17.2107 2.46957 17 3 17C3.53043 17 4.03914 17.2107 4.41421 17.5858C4.78929 17.9609 5 18.4696 5 19ZM1 3C1 3.53043 1.21071 4.03914 1.58579 4.41421C1.96086 4.78929 2.46957 5 3 5C3.53043 5 4.03914 4.78929 4.41421 4.41421C4.78929 4.03914 5 3.53043 5 3C5 2.46957 4.78929 1.96086 4.41421 1.58579C4.03914 1.21071 3.53043 1 3 1C2.46957 1 1.96086 1.21071 1.58579 1.58579C1.21071 1.96086 1 2.46957 1 3ZM17 9C17 9.53043 17.2107 10.0391 17.5858 10.4142C17.9609 10.7893 18.4696 11 19 11C19.5304 11 20.0391 10.7893 20.4142 10.4142C20.7893 10.0391 21 9.53043 21 9C21 8.46957 20.7893 7.96086 20.4142 7.58579C20.0391 7.21071 19.5304 7 19 7C18.4696 7 17.9609 7.21071 17.5858 7.58579C17.2107 7.96086 17 8.46957 17 9Z" stroke="white" stroke-width="2" stroke-linecap="round" stroke-linejoin="round"/>
</svg>
