<svg width="64" height="64" viewBox="0 0 64 64" fill="none" xmlns="http://www.w3.org/2000/svg">
<path d="M30.9248 4.21893C31.6013 3.88015 32.3978 3.88015 33.0743 4.21893C42.5284 8.95379 51.3301 14.7967 59.3094 21.5769C59.9724 22.1403 60.2786 23.0184 60.1096 23.8719C59.9406 24.7255 59.3229 25.4207 58.4952 25.6889C49.4896 28.6073 41.0384 32.7595 33.3408 37.9468C32.5301 38.4931 31.469 38.4931 30.6583 37.9468C28.4967 36.4901 26.2756 35.115 23.9995 33.826V30.0595C23.9995 29.2802 24.3699 28.5788 24.9649 28.1664C28.3613 25.8123 31.892 23.6388 35.5432 21.6596C36.7085 21.028 37.1411 19.5713 36.5095 18.406C35.8778 17.2407 34.4211 16.8081 33.2558 17.4397C29.4499 19.5027 25.7701 21.7681 22.2305 24.2214C20.2966 25.5618 19.1995 27.7618 19.1995 30.0595V31.2763C14.8063 29.093 10.2315 27.221 5.50392 25.6889C4.67622 25.4207 4.05851 24.7255 3.88952 23.8719C3.72052 23.0184 4.0267 22.1403 4.68974 21.5769C12.669 14.7967 21.4707 8.95379 30.9248 4.21893Z" fill="#C4C4C4"/>
<path d="M19.1995 36.6701C16.6463 35.3203 14.0251 34.0824 11.3426 32.9629C10.8032 36.245 10.3855 39.568 10.0945 42.9271C10.0087 43.9173 10.5421 44.858 11.4359 45.2926C13.1253 46.1142 14.7834 46.9902 16.4079 47.9184C15.74 48.9549 14.9523 49.9367 14.0446 50.8443C13.1074 51.7816 13.1074 53.3012 14.0446 54.2384C14.9819 55.1757 16.5015 55.1757 17.4388 54.2384C18.6216 53.0555 19.6446 51.7729 20.5076 50.4176C23.9946 52.6811 27.305 55.1939 30.4137 57.9311C31.3203 58.7294 32.679 58.7294 33.5857 57.9311C39.2852 52.9127 45.6632 48.6481 52.5634 45.2926C53.4572 44.858 53.9907 43.9173 53.9049 42.9271C53.6138 39.5679 53.1961 36.2449 52.6567 32.9629C46.7967 35.4083 41.2296 38.4188 36.0232 41.9273C33.5911 43.5663 30.408 43.5663 27.9759 41.9273C26.6659 41.0445 25.333 40.1932 23.9784 39.3745C23.8113 43.2264 22.6542 47.0467 20.5076 50.4176C19.1667 49.5472 17.7996 48.7137 16.4079 47.9184C18.2691 45.03 19.1995 41.7167 19.1995 38.3993V36.6701Z" fill="#C4C4C4"/>
</svg>
