<svg width="22" height="22" viewBox="0 0 22 22" fill="none" xmlns="http://www.w3.org/2000/svg">
<g clip-path="url(#clip0_1285_11612)">
<path d="M0.469375 10.8686C0.468859 12.717 0.955609 14.5219 1.88116 16.1127L0.380859 21.5481L5.98673 20.0896C7.53725 20.9271 9.27448 21.366 11.0399 21.3661H11.0445C16.8724 21.3661 21.6164 16.6606 21.6189 10.8769C21.62 8.07425 20.521 5.43886 18.5243 3.45613C16.528 1.47357 13.873 0.381162 11.0441 0.379883C5.21553 0.379883 0.471867 5.08515 0.469461 10.8686" fill="#262F63"/>
<path d="M8.30867 6.32225C8.10363 5.87005 7.88784 5.86093 7.69284 5.853C7.53317 5.84618 7.35064 5.84669 7.16828 5.84669C6.98575 5.84669 6.68918 5.91482 6.4385 6.18641C6.18756 6.45825 5.48047 7.11518 5.48047 8.4513C5.48047 9.78742 6.46127 11.0788 6.598 11.2601C6.7349 11.4412 8.49146 14.2708 11.2734 15.3594C13.5855 16.264 14.056 16.0841 14.5578 16.0387C15.0597 15.9935 16.1772 15.382 16.4052 14.7478C16.6334 14.1137 16.6334 13.5702 16.5649 13.4566C16.4965 13.3435 16.314 13.2755 16.0403 13.1398C15.7666 13.004 14.4209 12.3469 14.17 12.2563C13.9191 12.1657 13.7367 12.1205 13.5541 12.3925C13.3716 12.664 12.8475 13.2755 12.6877 13.4566C12.5281 13.6382 12.3684 13.6608 12.0947 13.5249C11.8209 13.3887 10.9394 13.1023 9.89362 12.1771C9.07996 11.4573 8.53065 10.5683 8.37098 10.2964C8.2113 10.0249 8.35388 9.87772 8.49112 9.74239C8.61409 9.62071 8.76491 9.42527 8.9019 9.26675C9.03837 9.10815 9.08391 8.99499 9.17518 8.81387C9.26653 8.63259 9.22081 8.47398 9.15249 8.33815C9.08391 8.20231 8.55205 6.8592 8.30867 6.32225Z" fill="white"/>
</g>
<defs>
<clipPath id="clip0_1285_11612">
<rect width="22" height="22" fill="white"/>
</clipPath>
</defs>
</svg>
