<svg width="22" height="22" viewBox="0 0 22 22" fill="none" xmlns="http://www.w3.org/2000/svg">
<g clip-path="url(#clip0_229_39088)">
<path d="M0.469375 10.8681C0.468859 12.7165 0.955609 14.5214 1.88116 16.1122L0.380859 21.5476L5.98673 20.0891C7.53725 20.9266 9.27448 21.3655 11.0399 21.3656H11.0445C16.8724 21.3656 21.6164 16.6601 21.6189 10.8764C21.62 8.07377 20.521 5.43837 18.5243 3.45564C16.528 1.47308 13.873 0.380674 11.0441 0.379395C5.21553 0.379395 0.471867 5.08467 0.469461 10.8681" fill="url(#paint0_linear_229_39088)"/>
<path d="M8.30867 6.32274C8.10363 5.87054 7.88784 5.86142 7.69284 5.85349C7.53317 5.84666 7.35064 5.84718 7.16828 5.84718C6.98575 5.84718 6.68918 5.91531 6.4385 6.1869C6.18756 6.45874 5.48047 7.11567 5.48047 8.45179C5.48047 9.78791 6.46127 11.0793 6.598 11.2606C6.7349 11.4417 8.49146 14.2713 11.2734 15.3599C13.5855 16.2645 14.056 16.0846 14.5578 16.0392C15.0597 15.994 16.1772 15.3825 16.4052 14.7483C16.6334 14.1142 16.6334 13.5707 16.5649 13.4571C16.4965 13.344 16.314 13.276 16.0403 13.1403C15.7666 13.0045 14.4209 12.3474 14.17 12.2568C13.9191 12.1662 13.7367 12.121 13.5541 12.3929C13.3716 12.6644 12.8475 13.276 12.6877 13.4571C12.5281 13.6387 12.3684 13.6613 12.0947 13.5254C11.8209 13.3892 10.9394 13.1027 9.89362 12.1776C9.07996 11.4578 8.53065 10.5688 8.37098 10.2969C8.2113 10.0254 8.35388 9.87821 8.49112 9.74288C8.61409 9.6212 8.76491 9.42576 8.9019 9.26724C9.03837 9.10863 9.08391 8.99548 9.17518 8.81436C9.26653 8.63308 9.22081 8.47447 9.15249 8.33863C9.08391 8.2028 8.55205 6.85969 8.30867 6.32274Z" fill="white"/>
</g>
<defs>
<linearGradient id="paint0_linear_229_39088" x1="1062.28" y1="2117.2" x2="1062.28" y2="0.379395" gradientUnits="userSpaceOnUse">
<stop stop-color="#1FAF38"/>
<stop offset="1" stop-color="#60D669"/>
</linearGradient>
<clipPath id="clip0_229_39088">
<rect width="22" height="22" fill="white"/>
</clipPath>
</defs>
</svg>
