<svg width="18" height="18" viewBox="0 0 18 18" fill="none" xmlns="http://www.w3.org/2000/svg">
<g clip-path="url(#clip0_1217_36081)">
<path fill-rule="evenodd" clip-rule="evenodd" d="M9 0.937714C7.629 0.937714 6.49575 1.05846 5.6235 1.20546L5.523 1.22271C4.7655 1.34946 4.1355 1.45521 3.64275 2.06121C3.32775 2.45046 3.225 2.87121 3.20175 3.33996L2.83275 3.46296C2.4855 3.57846 2.18025 3.68046 1.9395 3.79296C1.6785 3.91446 1.43925 4.07046 1.25625 4.32471C1.07325 4.57896 1.0005 4.85496 0.9675 5.14071C0.9375 5.40546 0.9375 5.72571 0.9375 6.09246V6.20121C0.9375 6.50271 0.9375 6.76896 0.96 6.99171C0.984 7.23246 1.03725 7.46721 1.17 7.69371C1.30425 7.92096 1.48275 8.08146 1.68225 8.21946C1.866 8.34696 2.0985 8.47671 2.3625 8.62296L4.3425 9.72321C4.7475 10.519 5.30325 11.2285 6.0675 11.7407C6.73275 12.1877 7.5315 12.4682 8.47725 12.5425C8.4518 12.6088 8.43834 12.6792 8.4375 12.7502V14.0627H7.365C7.06156 14.0627 6.7675 14.1679 6.53286 14.3603C6.29821 14.5527 6.13747 14.8204 6.078 15.118L5.91375 15.9377H4.5C4.35082 15.9377 4.20774 15.997 4.10225 16.1025C3.99676 16.208 3.9375 16.351 3.9375 16.5002C3.9375 16.6494 3.99676 16.7925 4.10225 16.898C4.20774 17.0035 4.35082 17.0627 4.5 17.0627H13.5C13.6492 17.0627 13.7923 17.0035 13.8977 16.898C14.0032 16.7925 14.0625 16.6494 14.0625 16.5002C14.0625 16.351 14.0032 16.208 13.8977 16.1025C13.7923 15.997 13.6492 15.9377 13.5 15.9377H12.0863L11.922 15.118C11.8625 14.8204 11.7018 14.5527 11.4671 14.3603C11.2325 14.1679 10.9384 14.0627 10.635 14.0627H9.5625V12.7502C9.56166 12.6792 9.5482 12.6088 9.52275 12.5425C10.4685 12.4675 11.2673 12.1877 11.9325 11.7415C12.6975 11.2285 13.2525 10.519 13.6575 9.72321L15.6375 8.62296C15.9015 8.47671 16.134 8.34696 16.3177 8.21946C16.5165 8.08146 16.6957 7.92096 16.8292 7.69446C16.9627 7.46721 17.0168 7.23246 17.04 6.99171C17.0625 6.76896 17.0625 6.50271 17.0625 6.20121V6.09246C17.0625 5.72646 17.0625 5.40546 17.0325 5.14071C16.9995 4.85496 16.9275 4.57821 16.7438 4.32471C16.5608 4.07046 16.3215 3.91446 16.0613 3.79221C15.819 3.67971 15.5145 3.57846 15.1672 3.46296L14.7983 3.33996C14.7758 2.87046 14.673 2.45046 14.3573 2.06121C13.8652 1.45446 13.2352 1.34871 12.4777 1.22271L12.3765 1.20546C11.2605 1.02208 10.131 0.932514 9 0.937714ZM10.9388 15.9377L10.8188 15.3385C10.8103 15.296 10.7873 15.2577 10.7538 15.2303C10.7203 15.2028 10.6783 15.1877 10.635 15.1877H7.365C7.32167 15.1877 7.27969 15.2028 7.24619 15.2303C7.21269 15.2577 7.18974 15.296 7.18125 15.3385L7.06125 15.9377H10.9388ZM3.216 4.52121L3.2265 4.51746C3.2805 5.65746 3.40875 6.91746 3.72975 8.09496L2.93025 7.65171C2.6385 7.48896 2.4555 7.38696 2.3235 7.29546C2.202 7.21071 2.16225 7.16046 2.1405 7.12296C2.118 7.08546 2.094 7.02696 2.079 6.87996C2.0635 6.6458 2.05799 6.41109 2.0625 6.17646V6.12171C2.0625 5.71746 2.06325 5.46171 2.085 5.26821C2.106 5.08971 2.139 5.02296 2.169 4.98246C2.19825 4.94121 2.25075 4.88871 2.4135 4.81296C2.5905 4.73046 2.8335 4.64946 3.216 4.52121ZM14.7735 4.51671C14.7203 5.65671 14.5912 6.91671 14.271 8.09421L15.0697 7.65096C15.3615 7.48821 15.5445 7.38621 15.6765 7.29471C15.798 7.20996 15.8377 7.15971 15.8595 7.12221C15.882 7.08471 15.906 7.02621 15.921 6.87921C15.9368 6.71871 15.9375 6.50946 15.9375 6.17571V6.12096C15.9375 5.71671 15.9367 5.46096 15.915 5.26746C15.894 5.08896 15.861 5.02221 15.831 4.98171C15.8018 4.94046 15.7492 4.88796 15.5865 4.81221C15.4095 4.72971 15.1665 4.64796 14.784 4.51971L14.7735 4.51671ZM5.811 2.31471C6.86514 2.14215 7.93184 2.05786 9 2.06271C10.305 2.06271 11.3753 2.17746 12.189 2.31471C13.0943 2.46771 13.284 2.52471 13.4843 2.77071C13.6807 3.01221 13.6995 3.24171 13.659 4.25796C13.5915 5.95146 13.368 7.77996 12.6765 9.17046C12.3345 9.85596 11.8875 10.417 11.3062 10.807C10.728 11.1947 9.98175 11.4377 9 11.4377C8.01825 11.4377 7.27275 11.1947 6.6945 10.807C6.1125 10.417 5.6655 9.85596 5.32425 9.16971C4.632 7.77996 4.40925 5.95221 4.34175 4.25721C4.30125 3.24171 4.31925 3.01221 4.5165 2.77071C4.716 2.52471 4.90575 2.46771 5.811 2.31471Z" fill="white"/>
</g>
<defs>
<clipPath id="clip0_1217_36081">
<rect width="18" height="18" fill="white"/>
</clipPath>
</defs>
</svg>
