<svg width="21" height="20" viewBox="0 0 21 20" fill="none" xmlns="http://www.w3.org/2000/svg">
<path d="M14.1749 1.25H11.6749C9.17492 1.25 6.63117 3.125 6.63117 7.2625C6.5789 8.22152 6.79293 9.17631 7.24959 10.0212C7.70626 10.8662 8.38774 11.5683 9.21867 12.05L6.12492 17.5812C6.054 17.7015 6.0166 17.8385 6.0166 17.9781C6.0166 18.1177 6.054 18.2548 6.12492 18.375C6.18906 18.4851 6.27999 18.5772 6.38926 18.6428C6.49852 18.7083 6.62258 18.7452 6.74992 18.75H8.30617C8.46407 18.7577 8.62054 18.7169 8.7546 18.6331C8.88866 18.5493 8.99388 18.4265 9.05617 18.2812L11.9249 12.6562H12.1374V18.0438C12.1381 18.14 12.1583 18.2352 12.1968 18.3234C12.2354 18.4117 12.2913 18.4912 12.3614 18.5572C12.4315 18.6232 12.5143 18.6743 12.6047 18.7075C12.6951 18.7406 12.7913 18.7551 12.8874 18.75H14.2499C14.4335 18.7568 14.6125 18.6912 14.7481 18.5672C14.8837 18.4433 14.9652 18.271 14.9749 18.0875V2.0125C14.9774 1.91482 14.9606 1.81761 14.9255 1.72642C14.8905 1.63522 14.8377 1.55184 14.7704 1.48103C14.7031 1.41022 14.6225 1.35337 14.5331 1.31373C14.4438 1.27409 14.3476 1.25243 14.2499 1.25H14.1749ZM12.1874 10.175H11.8187C10.3812 10.175 9.53117 9.00625 9.53117 7.05C9.53117 4.6125 10.6124 3.74375 11.6187 3.74375H12.2062L12.1874 10.175Z" fill="#D61E3B"/>
</svg>
